<?xml version="1.0" encoding="utf-8"?>
<!-- Generator: Adobe Illustrator 24.0.0, SVG Export Plug-In . SVG Version: 6.00 Build 0)  -->
<svg version="1.1" id="Layer_1" xmlns="http://www.w3.org/2000/svg" xmlns:xlink="http://www.w3.org/1999/xlink" x="0px" y="0px"
	 viewBox="0 0 238.9 177.6" style="enable-background:new 0 0 238.9 177.6;" xml:space="preserve">
<style type="text/css">
	.st0{fill:#515151;}
</style>
<g>
	<path class="st0" d="M112.3,73.1c0.4,0.1,0.8,0.3,1.1,0.7c0.3,0.4,0.4,0.8,0.3,1.3c-0.1,0.5-0.3,0.8-0.8,1.1
		c-9.3,6.7-17.8,13-25.5,18.9c0.8,2.5,0.9,5.2,0.3,8.1c-1,4.9-2.7,9.6-5.3,14.2c-2.6,4.6-5.5,8.7-8.7,12.1
		c-3.3,3.5-6.7,6.6-10.4,9.3c-3.6,2.7-7.1,4.8-10.4,6.2c-3.3,1.4-6.1,2.3-8.6,2.4c-0.4,0.1-0.7,0.1-1,0.1c-2.9,0-4.7-1.1-5.5-3.2
		c-1.4-3.8,1.8-10,9.6-18.6c7.8-8.6,19.7-19.2,35.6-31.7c-1.8-3.3-5.3-6.3-10.6-9.1c-5.3-2.8-13.6-6.5-25-11.1
		c-3.1-1.3-5.5-2.3-7.2-3c-4.3-1.8-7.3-4.2-9-7.3c-1.7-3.1-1.9-6.6-0.6-10.5c1.6-5,5.3-10.5,11.3-16.4c6-5.9,12.6-11.1,19.7-15.5
		c7.1-4.4,14.3-8,21.5-10.6c7.2-2.6,12.8-3.5,16.8-2.6c0.9,0.2,1.7,0.5,2.5,0.9c0.7,0.4,1.5,1,2.3,1.8c0.8,0.8,1.3,1.8,1.7,3.2
		c0.3,1.4,0.4,3,0.1,4.8c-0.1,0.3-0.2,0.6-0.4,0.8c-0.2,0.2-0.4,0.4-0.7,0.5c-0.3,0.1-0.6,0.2-0.9,0.1c-0.5-0.1-0.9-0.3-1.2-0.7
		c-0.3-0.4-0.4-0.8-0.4-1.3c0.4-2.2,0.2-3.8-0.6-4.8c-0.8-1-1.8-1.6-3.2-1.9c-2.2-0.5-5.2-0.4-9,0.5c-3.8,0.9-8,2.4-12.6,4.5
		c-4.7,2.1-9.4,4.8-14.2,7.9C55.8,29,49.3,34.1,44,39.5c-5.3,5.3-8.6,10.2-9.9,14.5c-2,6.2,0.6,10.7,7.6,13.7c1.6,0.7,4,1.6,7.2,2.9
		c4,1.6,6.9,2.8,8.8,3.6c1.9,0.8,4.4,1.9,7.6,3.2c3.1,1.3,5.5,2.5,7.2,3.5c1.7,1,3.5,2.1,5.5,3.3c2,1.3,3.6,2.5,4.9,3.7
		c1.3,1.2,2.3,2.5,3.1,3.9c7.6-5.9,15.9-12,24.9-18.5C111.4,73.1,111.8,73,112.3,73.1z M84.4,102.5c0.4-1.8,0.4-3.5,0.1-5
		c-12.8,10-22.9,18.8-30.4,26.5c-4.4,4.5-7.7,8.5-10.1,12c-2.3,3.5-3.3,5.9-2.8,7.2c0.2,0.7,1.2,1,3,0.9c2-0.2,4.5-0.9,7.5-2.3
		c3-1.3,6.1-3.2,9.5-5.8c3.4-2.5,6.6-5.4,9.7-8.6c3.1-3.2,5.9-7,8.3-11.4C81.8,111.6,83.5,107.1,84.4,102.5z"/>
	<path class="st0" d="M134,73.7c0.5-0.1,0.9-0.1,1.3,0.2c0.4,0.2,0.7,0.6,0.8,1.1c0.1,0.5,0,0.9-0.2,1.4c-1.7,2.6-3.7,5.4-6.1,8.2
		c-2.4,2.9-5,5.4-8,7.7c-3,2.3-5.5,3.4-7.5,3.4c-0.7,0-1.4-0.1-1.9-0.4c-4-1.7-4.4-8.8-1.3-21.1c0.1-0.5,0.4-0.8,0.8-1.1
		c0.4-0.2,0.9-0.3,1.3-0.2c0.4,0.1,0.8,0.4,1,0.8c0.2,0.4,0.3,0.8,0.2,1.3c-0.7,2.9-1.2,5.4-1.6,7.6c-0.3,2.2-0.5,3.9-0.4,5
		c0,1.1,0.1,2.1,0.4,2.8c0.2,0.8,0.4,1.2,0.5,1.4c0.1,0.2,0.3,0.3,0.4,0.3c1.6,0.7,4.4-0.9,8.5-4.7c4.1-3.8,7.7-8.1,10.7-13
		C133.1,74,133.5,73.8,134,73.7z M114,66.7c-1.7-0.1-2.3-0.8-1.6-2.2c0.6-1.1,1.4-1.8,2.3-2.2c1.5-0.5,2.4-0.1,2.7,1.2
		c0.3,1.2-0.2,2.1-1.4,2.7C115.5,66.5,114.8,66.7,114,66.7z"/>
	<path class="st0" d="M168.8,73.9c0.5-0.1,0.9-0.1,1.3,0.1c0.4,0.2,0.7,0.5,0.9,1s0.1,0.9-0.1,1.3c-1.6,3.5-3.5,7.1-5.5,10.7
		c-2,3.7-4.3,7.4-6.7,11.1c-2.4,3.7-4.8,6.8-7.2,9.2c-2.4,2.4-4.4,3.6-6.1,3.6c-0.4,0-0.8-0.1-1.2-0.3c-2.5-1-3.2-4.7-2.3-11.2
		c0.8-6.1,3.1-14.6,6.7-25.7c-0.1,0-0.1,0-0.1,0c0,0-0.1,0-0.1,0c-1.3,0.9-2.4,1.6-3.3,2.1c-0.9,0.5-2,1-3.5,1.6
		c-1.5,0.6-2.9,0.9-4.2,0.8c-1.3-0.1-2.6-0.5-3.7-1.3c-2.3-1.6-3.4-3.9-3.5-6.8c-0.1-2.9,1-6,3.2-9.4c1.4-2.2,3-4.1,5-5.7
		c1.9-1.6,3.6-2,5-1.1c0.8,0.5,1.3,1.3,1.5,2.3c0.1,1.1-0.4,3.2-1.6,6.3c-1.2,3.1-3.2,7.1-6,12.1c1.9,0.2,4.9-1,9.2-3.9
		c0.8-0.5,1.4-0.9,1.8-1.1c0.4-0.2,0.8-0.4,1.3-0.7c0.5-0.2,0.9-0.3,1.3-0.3c0.4,0.1,0.7,0.2,1.1,0.5c0.9,0.7,1,2,0.4,3.8
		c-6,18.6-8.4,29.9-7.1,33.8c0.1,0.2,0.2,0.4,0.3,0.5c0.5,0.1,1.2-0.3,2.2-1.2c1-0.8,2.2-2.2,3.7-4c1.5-1.8,3.1-4,4.8-6.5
		s3.6-5.6,5.7-9.3c2.1-3.7,4.1-7.6,6-11.7C168,74.4,168.4,74.1,168.8,73.9z M133.8,67.8c-0.5,2.1-0.4,3.8,0.4,5
		c4.4-7.6,6.7-12.8,7-15.5c-0.7,0.4-1.5,1.1-2.5,2.1c-0.9,1-1.9,2.2-2.9,3.7C134.9,64.7,134.2,66.3,133.8,67.8z"/>
	<path class="st0" d="M202.9,74.3c0.4-0.1,0.9-0.1,1.3,0.1c0.4,0.2,0.7,0.5,0.9,1c0.1,0.5,0.1,0.9,0,1.3
		c-6.4,13.3-12.2,19.9-17.2,19.9c-0.3,0-0.6,0-1-0.1c-4-0.8-6.5-6.2-7.5-16.2c-2.9,4-5.6,7.2-7.8,9.7c-2,2.2-3.8,2.9-5.2,2.3
		c-1.4-0.5-2.1-2.1-2.1-4.7c0-2.2,0.5-4.7,1.4-7.7c1-3,2.4-5.9,4.2-8.7c1.9-2.8,3.9-4.6,6-5.3c3.2-1.1,6.1-0.1,8.8,3.1
		c0.3,0.4,0.4,0.8,0.4,1.3c0,0.5-0.2,0.9-0.6,1.2c-0.4,0.3-0.8,0.4-1.3,0.4c-0.5,0-0.9-0.2-1.2-0.6c-2.1-2.5-4.2-3-6.4-1.4
		c-2.5,1.7-4.5,4.9-6.2,9.4c-1.7,4.5-2.3,7.8-1.9,9.7c0.4-0.3,0.8-0.7,1.3-1.2c2.4-2.6,5.3-6.3,8.8-11.1c0.8-1.1,1.3-1.8,1.6-2.3
		c0.5-0.6,1.1-0.8,1.9-0.6c0.8,0.2,1.2,0.7,1.3,1.6c0.1,2.9,0.4,5.6,0.7,7.8c0.4,2.3,0.7,4,1.1,5.2c0.4,1.2,0.8,2.1,1.3,2.9
		c0.5,0.8,0.9,1.3,1.1,1.5c0.3,0.2,0.6,0.3,0.9,0.3c0.8,0.2,1.9-0.2,3.2-1.2c1.3-1,2.9-2.9,4.9-5.8c2-2.8,4.1-6.5,6.2-10.8
		C202.1,74.7,202.5,74.4,202.9,74.3z"/>
	<path class="st0" d="M227.2,74c0.5,0.1,0.9,0.3,1.1,0.7c0.3,0.4,0.3,0.8,0.2,1.3c-0.1,0.5-0.4,0.8-0.7,1.1
		c-10.6,6.9-19.3,13.8-26.1,20.6c-3.5,21.1-7.4,38.3-11.7,51.6c-4.9,15.5-9.7,24-14.4,25.3c-0.5,0.1-0.9,0.2-1.4,0.2
		c-1.4,0-2.6-0.6-3.6-1.9c-1.7-2.1-2.6-5.7-2.7-10.7c-0.1-5,0.6-10.9,2.3-17.6c1.7-6.8,4.2-13.3,7.5-19.7
		c5.6-10.9,12.5-20.5,20.7-28.9c1.4-8.2,2.7-16.8,4-25.9c0.1-0.4,0.3-0.8,0.6-1.1c0.4-0.3,0.8-0.4,1.3-0.4c0.5,0.1,0.9,0.3,1.2,0.7
		c0.3,0.4,0.4,0.8,0.4,1.3c-1,7.4-2.1,14.6-3.2,21.3c6.2-5.8,13.9-11.7,23.2-17.7C226.3,74,226.7,73.9,227.2,74z M186.8,148.2
		c3.8-11.8,7.3-27.1,10.6-45.9c-6.4,7.2-11.9,15.3-16.6,24.2c-2.6,5-4.6,10-6.2,15.2c-1.6,5.1-2.5,9.6-2.9,13.4
		c-0.4,3.8-0.4,7.1-0.1,9.9c0.3,2.8,0.9,4.7,1.7,5.8c0.4,0.5,0.8,0.7,1.3,0.5c0.3-0.1,0.6-0.3,1-0.5c0.4-0.2,1-0.9,1.8-1.8
		c0.8-1,1.7-2.2,2.5-3.7c0.8-1.5,1.9-3.7,3.1-6.7C184.3,155.4,185.5,152,186.8,148.2z M204.8,56.9c-1.7-0.1-2.3-0.7-1.6-2
		c0.5-1.1,1.3-1.8,2.4-2.2c1.4-0.5,2.3-0.1,2.6,1.1c0.3,1.2-0.2,2.1-1.4,2.7C206.2,56.9,205.5,57,204.8,56.9z"/>
</g>
</svg>
