<?xml version="1.0" encoding="utf-8"?>
<!-- Generator: Adobe Illustrator 24.0.0, SVG Export Plug-In . SVG Version: 6.00 Build 0)  -->
<svg version="1.1" id="Calque_1" xmlns="http://www.w3.org/2000/svg" xmlns:xlink="http://www.w3.org/1999/xlink" x="0px" y="0px"
	 viewBox="0 0 1000 1000" style="enable-background:new 0 0 1000 1000;" xml:space="preserve">
<style type="text/css">
	.st0{fill:url(#SVGID_1_);}
	.st1{fill:url(#SVGID_2_);}
	.st2{fill:none;stroke:#000000;stroke-miterlimit:10;}
	.st3{fill:none;stroke:#000000;stroke-width:2;stroke-linejoin:round;stroke-miterlimit:10;}
	.st4{fill:none;stroke:#000000;stroke-width:9;stroke-linecap:round;stroke-linejoin:round;stroke-miterlimit:10;}
	.st5{fill:#0F3443;}
	.st6{fill:url(#SVGID_3_);}
	.st7{fill:url(#SVGID_4_);}
	.st8{fill:url(#SVGID_5_);}
	.st9{fill:url(#SVGID_6_);}
	.st10{fill:url(#SVGID_7_);}
	.st11{fill:url(#SVGID_8_);}
	.st12{fill:url(#SVGID_9_);}
	.st13{fill:url(#SVGID_10_);}
	.st14{fill:none;}
	.st15{fill:url(#SVGID_11_);}
	.st16{fill:#34E89E;}
	.st17{fill:url(#SVGID_12_);}
	.st18{fill:url(#SVGID_13_);}
</style>
<linearGradient id="SVGID_1_" gradientUnits="userSpaceOnUse" x1="512.9" y1="572.1" x2="544.1" y2="572.1">
	<stop  offset="0" style="stop-color:#9929EA"/>
	<stop  offset="1" style="stop-color:#5808FB"/>
</linearGradient>
<circle class="st0" cx="528.5" cy="572.1" r="15.6"/>
<linearGradient id="SVGID_2_" gradientUnits="userSpaceOnUse" x1="812.9" y1="572.1" x2="844.1" y2="572.1">
	<stop  offset="0" style="stop-color:#9929EA"/>
	<stop  offset="1" style="stop-color:#5808FB"/>
</linearGradient>
<circle class="st1" cx="828.5" cy="572.1" r="15.6"/>
<g>
	<path class="st2" d="M459.3,214"/>
</g>
<g>
	<path class="st2" d="M431.9,232.9"/>
</g>
<g>
	<path class="st3" d="M385.4,264.8"/>
</g>
<g>
	<path class="st4" d="M409.8,549.9"/>
</g>
<g>
	<path class="st5" d="M521.2,615.8h18.1v140.8h-18.1V615.8z"/>
</g>
<g>
	<path class="st5" d="M570.2,615.8h18.5v20.6c5.5-8.1,11.3-14.2,17.5-18.2c6.1-4,12.5-6,19.2-6c5,0,10.4,1.6,16.1,4.8l-9.5,15.3
		c-3.8-1.6-7-2.5-9.6-2.5c-6,0-11.9,2.5-17.5,7.4c-5.6,5-9.9,12.7-12.8,23.1c-2.2,8-3.4,24.2-3.4,48.7v47.6h-18.5V615.8z"/>
</g>
<g>
	<path class="st5" d="M790.1,615.8v140.8h-17.9v-24.2c-7.6,9.2-16.1,16.2-25.6,20.8c-9.4,4.7-19.8,7-31,7c-19.9,0-37-7.2-51.1-21.7
		s-21.2-32-21.2-52.8c0-20.3,7.1-37.6,21.4-52c14.2-14.4,31.4-21.6,51.4-21.6c11.6,0,22,2.5,31.4,7.4s17.6,12.3,24.7,22.1v-25.9
		h17.9V615.8z M717.7,629.7c-10.1,0-19.4,2.5-27.9,7.4c-8.5,5-15.3,11.9-20.4,20.9c-5,9-7.6,18.4-7.6,28.4c0,9.9,2.5,19.4,7.6,28.4
		c5.1,9.1,11.9,16.1,20.5,21.1s17.8,7.6,27.6,7.6c9.9,0,19.3-2.5,28.2-7.5s15.7-11.8,20.5-20.3s7.2-18.1,7.2-28.8
		c0-16.3-5.4-29.9-16.1-40.9C746.6,635.2,733.4,629.7,717.7,629.7z"/>
</g>
<path class="st5" d="M820.7,615.8h18.4v162.1c0,11.8-2.1,20.4-6.4,25.8c-4.3,5.4-10.1,8.1-17.5,8.1c-6.1,0-13-1.5-20.7-4.4v-16.3
	c4.8,2.5,9.2,3.8,13.1,3.8c4.9,0,8.6-2,11-6.1c1.5-2.6,2.2-8,2.2-16.2L820.7,615.8L820.7,615.8z"/>
<g>
	<g>
		<g>
			<path class="st5" d="M570.8,520c36.5-64.9,19.2-142.4-21.7-202.7c0,0,0,0,0-0.1c-22.6-29.6-49.5-52.2-82.3-67
				c-1.3-0.6-0.5-2.5,0.8-2c0.1,0,0.2,0.1,0.2,0.1c-8.7-1.6-17-4.6-25.4-7.3c31.2,7.3,59.2,22.4,82.9,44
				C587.9,345.3,606.4,440.4,570.8,520"/>
		</g>
		<g>
			<path class="st5" d="M570.8,529.7c-6.6,0-11.8-7-8.8-13.6c7.2-16.2,12.1-33,14.8-50c6.3-40.3-1.3-81.4-20.2-117.5
				c-0.1-0.3-0.3-0.5-0.4-0.8c-9.4-17.8-21.3-34.2-35.5-48.4c-21.6-21.6-46.2-37.1-74.5-47c-0.9-0.3-1.9-0.6-2.8-0.9l-3.8-1.3
				c0,0,0,0-0.1,0c-2-0.7-3.7-2-4.9-3.7c-0.3-0.4-0.6-0.9-0.9-1.5c-0.9-2-1.2-4.4-0.5-6.7l0,0c0.1-0.5,0.3-1,0.5-1.4
				c0.8-1.7,2.1-3.1,3.7-4.1c0.9-0.6,2-1,3.1-1.2c1.4-0.3,2.8-0.3,4.3,0.1c2.9,0.7,5.9,1.5,8.8,2.3c29.2,8.3,56,23.5,78.4,43.9
				c0.1,0.1,0.1,0.1,0.2,0.2c47.9,46.5,75.3,119.8,66.9,186.8c-0.2,1.2-0.3,2.4-0.5,3.6c-1.8,11.7-4.7,23.2-8.9,34.2
				c-2.8,7.4-7.4,24.2-16.1,26.7C572.6,529.5,571.7,529.7,570.8,529.7z"/>
		</g>
	</g>
	<g>
		<g>
			<path class="st5" d="M477.4,624.1c1.2,8.8,0.8,7.4,1,9.8c2.5,24.8-4.8,50.1-19.2,70.4c-8.4,11.8-19.2,21.9-31.7,29.1
				c-34.2,19.7-79.8,17.2-111.7-6c-9.2-6.7-17.1-15-23.5-24.4c-0.5-0.7,0-1.6,0.8-1.7c0.1,0,0.1,0,0.2,0c0.4-0.1,0.8,0.1,1,0.4
				c13.9,19.5,34.5,34.4,57.7,40.2c38.3,9.5,81.6-6,105.2-37.7c0-0.1,0.1-0.1,0.1-0.2c23.4-31.7,25.7-77.5,5.5-111.4
				c-14.1-23.5-38.4-40.2-65-46.4c-11.7-2.7-23.9-3.4-35.8-1.6c-39.2,5.7-66.9,33.1-109.1,24.5c-25.6-5.2-48.9-20.7-63.6-42.2
				c-13.6-20-19.7-44.3-21.5-68.4c-2.9-39,4.8-78.7,22.3-113.6c25.1-50.3,71.3-90.2,125.6-105c-44,14.2-83,43.3-109.2,81.4
				s-39.4,84.9-37,131.1c1.4,25.7,7.6,51.7,21.9,73.2c18.4,27.7,49.6,43.8,82.7,43.8c34,0,59.3-24.4,92.4-27.5
				c8.6-0.8,17.3-0.5,25.7,0.8c12.9,2,25.5,6.4,36.7,13C453.5,570.4,471.7,595.9,477.4,624.1"/>
		</g>
		<g>
			<path class="st5" d="M376.7,756.3c-23.7,0-47.5-7.1-66.6-21c-10.4-7.6-19.5-17.1-26.9-28.4c-1.8-2.8-2.1-6.3-0.7-9.4
				c1.4-3,4.3-5.1,7.6-5.6l1-0.1c0.5-0.1,0.9-0.1,1.4-0.2c3.6-0.5,7.3,1,9.4,4c12.9,18.3,32,31.8,52.5,36.9
				c34.6,8.6,73.6-5.3,94.9-33.9l0,0c0.1-0.1,0.1-0.2,0.2-0.3c21.2-28.7,23.2-70.1,4.9-100.7c-12.3-20.6-34.3-36.2-58.9-41.9
				c-10.9-2.5-21.7-3-32.3-1.5c-14,2-26.4,7.1-39.6,12.4c-21.7,8.8-44.1,17.9-72.8,12c-28.1-5.7-53.5-22.5-69.7-46.2
				c-13.2-19.3-21-43.9-23.2-73.2c-3.1-41,5-82.1,23.3-118.7c26.9-53.8,76.1-94.9,131.7-110c5.1-1.4,10.3,1.5,11.8,6.6
				c1.5,5-1.3,10.4-6.3,12c-42.1,13.6-79.1,41.2-104.2,77.7c-25.1,36.4-37.6,80.9-35.3,125.1c1.4,27.2,8.3,50.2,20.3,68.3
				c16.4,24.7,44.3,39.5,74.6,39.5c16.1,0,30.4-6.3,45.5-13c14.2-6.3,28.9-12.8,45.9-14.4c9.4-0.9,18.9-0.6,28.1,0.8
				c14.4,2.2,27.9,7,40.2,14.2c27.1,16,47,44,53.3,74.8c0,0.2,0.1,0.5,0.1,0.7c0.8,6.1,0.9,7.6,1,9.1c0,0.3,0,0.5,0.1,0.9
				c2.7,26.3-4.9,54.4-21,77c-9.3,13.2-21.4,24.2-34.8,31.9C415.5,751.5,396.1,756.3,376.7,756.3z"/>
		</g>
	</g>
</g>
<g>
	<g>
		<linearGradient id="SVGID_3_" gradientUnits="userSpaceOnUse" x1="354.3" y1="240.1" x2="400.8" y2="240.1">
			<stop  offset="0" style="stop-color:#9929EA"/>
			<stop  offset="1" style="stop-color:#5808FB"/>
		</linearGradient>
		<path class="st6" d="M400.5,326.3L400.5,326.3c0,2.2-1.9,4-4.1,3.8c-12.1-1-21.9-5-29.5-12c-8.4-7.8-12.6-17.5-12.6-29
			c0-5.7,1-11.8,3.1-18.3c2.1-6.6,7.9-21.5,17.4-44.7c7.2-17.6,10.8-30.2,10.8-37.6c0-15.9-9.4-26.1-28.1-30.7c-1.7-0.4-3-2-3-3.8
			l0,0c0-2.3,2-4.1,4.3-3.9c13.3,1.1,23.4,5.3,30.4,12.6c7.7,8.1,11.6,16.9,11.6,26.5c0,10.3-6.9,31.8-20.8,64.4
			c-7.5,17.4-11.2,30-11.2,37.8c0,9.7,3,17.2,9.1,22.4c5.3,4.6,11.9,7.6,19.5,8.9C399.2,322.9,400.5,324.5,400.5,326.3z"/>
		<linearGradient id="SVGID_4_" gradientUnits="userSpaceOnUse" x1="354" y1="240.0424" x2="401.4" y2="240.0424">
			<stop  offset="0" style="stop-color:#9929EA"/>
			<stop  offset="1" style="stop-color:#5808FB"/>
		</linearGradient>
		<path class="st7" d="M396.7,330.5c-0.1,0-0.2,0-0.3,0c-12.1-1-22.1-5-29.7-12.1c-8.5-7.8-12.7-17.7-12.7-29.3
			c0-5.7,1.1-11.9,3.2-18.4s7.9-21.6,17.4-44.8c7.2-17.5,10.8-30.1,10.8-37.5c0-15.6-9.3-25.8-27.8-30.3c-1.9-0.5-3.2-2.2-3.2-4.2
			c0-1.2,0.5-2.3,1.4-3.2c0.9-0.8,2.1-1.2,3.3-1.1c13.3,1.1,23.6,5.3,30.6,12.7c7.8,8.1,11.7,17.1,11.7,26.8c0,10.3-7,32-20.9,64.6
			c-7.4,17.3-11.2,29.9-11.2,37.7c0,9.6,3,17,8.9,22.1c5.3,4.5,11.8,7.5,19.4,8.8c2,0.3,3.4,2.1,3.4,4.1c0,1.2-0.5,2.3-1.3,3.1
			C398.8,330.1,397.8,330.5,396.7,330.5z M358.6,150.4c-0.9,0-1.8,0.3-2.4,1c-0.7,0.7-1.1,1.6-1.1,2.6c0,1.6,1.1,3,2.7,3.4
			c18.8,4.6,28.3,15,28.3,31.1c0,7.5-3.7,20.2-10.9,37.8c-9.4,23.2-15.3,38.2-17.4,44.7s-3.1,12.6-3.1,18.2c0,11.4,4.2,21,12.5,28.7
			c7.5,6.9,17.3,10.9,29.3,11.9c1,0.1,1.9-0.3,2.6-0.9c0.7-0.7,1.1-1.6,1.1-2.5c0-1.7-1.2-3.1-2.8-3.3c-7.7-1.3-14.4-4.4-19.7-9
			c-6.1-5.2-9.2-12.9-9.2-22.7c0-7.8,3.8-20.6,11.2-37.9c13.8-32.5,20.8-54.1,20.8-64.3c0-9.5-3.9-18.3-11.5-26.3
			c-6.9-7.2-17.1-11.4-30.1-12.5C358.8,150.4,358.7,150.4,358.6,150.4z"/>
	</g>
</g>
<g>
	<linearGradient id="SVGID_5_" gradientUnits="userSpaceOnUse" x1="278.8" y1="339.9" x2="296" y2="339.9">
		<stop  offset="0" style="stop-color:#9929EA"/>
		<stop  offset="1" style="stop-color:#5808FB"/>
	</linearGradient>
	<circle class="st8" cx="287.4" cy="339.9" r="8.6"/>
</g>
<g>
	<linearGradient id="SVGID_6_" gradientUnits="userSpaceOnUse" x1="255.1" y1="362.5" x2="283.1" y2="362.5">
		<stop  offset="0" style="stop-color:#9929EA"/>
		<stop  offset="1" style="stop-color:#5808FB"/>
	</linearGradient>
	<circle class="st9" cx="269.1" cy="362.5" r="14"/>
</g>
<g>
	<linearGradient id="SVGID_7_" gradientUnits="userSpaceOnUse" x1="296" y1="375.4" x2="311" y2="375.4">
		<stop  offset="0" style="stop-color:#9929EA"/>
		<stop  offset="1" style="stop-color:#5808FB"/>
	</linearGradient>
	<circle class="st10" cx="303.5" cy="375.4" r="7.5"/>
</g>
<g>
	<g>
		<linearGradient id="SVGID_8_" gradientUnits="userSpaceOnUse" x1="308.2" y1="787.1" x2="458.6" y2="787.1">
			<stop  offset="0" style="stop-color:#9929EA"/>
			<stop  offset="1" style="stop-color:#5808FB"/>
		</linearGradient>
		<path class="st11" d="M450.1,795.5H316.6c-4.6,0-8.4-3.7-8.4-8.4s3.7-8.4,8.4-8.4h133.6c4.6,0,8.4,3.7,8.4,8.4
			S454.7,795.5,450.1,795.5z"/>
	</g>
</g>
<g>
	<g>
		<linearGradient id="SVGID_9_" gradientUnits="userSpaceOnUse" x1="320.5" y1="814.5" x2="446.1" y2="814.5">
			<stop  offset="0" style="stop-color:#9929EA"/>
			<stop  offset="1" style="stop-color:#5808FB"/>
		</linearGradient>
		<path class="st12" d="M437.7,822.9H328.9c-4.6,0-8.4-3.7-8.4-8.4s3.7-8.4,8.4-8.4h108.8c4.6,0,8.4,3.7,8.4,8.4
			S442.4,822.9,437.7,822.9z"/>
	</g>
</g>
<g>
	<g>
		<linearGradient id="SVGID_10_" gradientUnits="userSpaceOnUse" x1="338.4" y1="841.9" x2="429.3" y2="841.9">
			<stop  offset="0" style="stop-color:#9929EA"/>
			<stop  offset="1" style="stop-color:#5808FB"/>
		</linearGradient>
		<path class="st13" d="M420.9,850.3h-74.1c-4.6,0-8.4-3.7-8.4-8.4s3.7-8.4,8.4-8.4h74.1c4.6,0,8.4,3.7,8.4,8.4
			S425.5,850.3,420.9,850.3z"/>
	</g>
</g>
<g>
	<g>
		<line class="st14" x1="442.3" y1="239.8" x2="591" y2="239.8"/>
	</g>
	<g>
		<path class="st5" d="M591,249.5H442.7c-4.7,0-8.9-3.1-9.9-7.7c-1.2-6.2,3.5-11.7,9.5-11.7h148.3c4.7,0,8.9,3.1,9.9,7.7
			C601.7,244.1,597,249.5,591,249.5z"/>
	</g>
</g>
<g>
	<linearGradient id="SVGID_11_" gradientUnits="userSpaceOnUse" x1="537.5" y1="219.9426" x2="601.2" y2="219.9426">
		<stop  offset="0" style="stop-color:#9929EA"/>
		<stop  offset="1" style="stop-color:#5808FB"/>
	</linearGradient>
	<path class="st15" d="M600.2,235.8c-0.2-0.8-0.5-1.6-0.9-2.4L577,195.1c-2.7-4.6-8.6-6.2-13.2-3.5c-4.6,2.7-6.2,8.6-3.5,13.2
		l14.7,25.3h-27.8l0,0c-5.3,0-9.7,4.3-9.7,9.7s4.3,9.7,9.7,9.7l44.3,0.1l0,0c5.3,0,9.7-4.3,9.7-9.7
		C601.1,238.4,600.8,237,600.2,235.8z"/>
	<path class="st16" d="M591.4,249.9l-44.3-0.1c-5.6,0-10.1-4.5-10.1-10.1c0-5.5,4.5-10.1,10.1-10.1h27.2L559.9,205
		c-1.3-2.3-1.7-5-1-7.6s2.4-4.8,4.7-6.1s5-1.7,7.6-1s4.8,2.4,6.1,4.7l22.2,38.4c0.4,0.7,0.7,1.5,1,2.4c0.6,1.4,0.9,2.8,0.9,4.2
		C601.5,245.4,596.9,249.9,591.4,249.9z M547.1,230.5c-5.1,0-9.3,4.2-9.3,9.3s4.2,9.3,9.3,9.3l44.3,0.1c5.1,0,9.3-4.2,9.3-9.3
		c0-1.3-0.3-2.6-0.9-3.9v-0.1c-0.2-0.9-0.5-1.6-0.9-2.3l-22.2-38.4c-1.2-2.2-3.3-3.7-5.7-4.3s-4.9-0.3-7.1,0.9
		c-2.2,1.2-3.7,3.3-4.3,5.7s-0.3,4.9,0.9,7.1l15,25.9H547.1z"/>
</g>
<g>
	<g>
		<line class="st14" x1="166" y1="239.8" x2="314.6" y2="239.8"/>
	</g>
	<g>
		<path class="st5" d="M314.6,249.5H166.3c-4.7,0-8.9-3.1-9.9-7.7c-1.2-6.2,3.5-11.7,9.5-11.7h148.3c4.7,0,8.9,3.1,9.9,7.7
			C325.4,244.1,320.7,249.5,314.6,249.5z"/>
	</g>
</g>
<g>
	<linearGradient id="SVGID_12_" gradientUnits="userSpaceOnUse" x1="156.3" y1="259.8" x2="219.8067" y2="259.8">
		<stop  offset="0" style="stop-color:#9929EA"/>
		<stop  offset="1" style="stop-color:#5808FB"/>
	</linearGradient>
	<path class="st17" d="M210.3,230.2l-44.3-0.1l0,0c-5.3,0-9.7,4.3-9.7,9.7c0,1.5,0.3,2.8,0.9,4.1c0.2,0.8,0.5,1.6,0.9,2.4l22.2,38.4
		c1.8,3.1,5.1,4.8,8.4,4.8c1.6,0,3.3-0.4,4.8-1.3c4.6-2.7,6.2-8.6,3.5-13.2l-14.7-25.3h27.8l0,0c5.3,0,9.7-4.3,9.7-9.7
		C220,234.5,215.7,230.2,210.3,230.2z"/>
	<linearGradient id="SVGID_13_" gradientUnits="userSpaceOnUse" x1="155.9" y1="259.75" x2="220.3" y2="259.75">
		<stop  offset="0" style="stop-color:#9929EA"/>
		<stop  offset="1" style="stop-color:#5808FB"/>
	</linearGradient>
	<path class="st18" d="M188.7,289.8c-3.6,0-6.9-1.9-8.7-5l-22.2-38.4c-0.4-0.7-0.7-1.5-1-2.4c-0.6-1.3-0.9-2.7-0.9-4.2
		c0-5.5,4.5-10.1,10.1-10.1l44.3,0.1c2.7,0,5.2,1.1,7.1,3c1.9,1.9,2.9,4.4,2.9,7.1c0,5.5-4.5,10.1-10.1,10.1H183l14.3,24.8
		c1.3,2.3,1.7,5,1,7.6s-2.4,4.8-4.7,6.1C192.2,289.3,190.5,289.8,188.7,289.8z M166,230.5c-5.1,0-9.3,4.2-9.3,9.3
		c0,1.3,0.3,2.6,0.9,3.9c0.3,1,0.6,1.7,0.9,2.3l22.2,38.4c1.7,2.9,4.8,4.7,8.1,4.7c1.6,0,3.2-0.4,4.7-1.3c2.2-1.2,3.7-3.3,4.3-5.7
		s0.3-4.9-0.9-7.1l-15-25.9h28.5c5.1,0,9.3-4.2,9.3-9.3c0-2.5-1-4.8-2.7-6.6c-1.8-1.8-4.1-2.7-6.6-2.7H166z"/>
</g>
</svg>
