<?xml version="1.0" encoding="utf-8"?>
<!-- Generator: Adobe Illustrator 24.0.0, SVG Export Plug-In . SVG Version: 6.00 Build 0)  -->
<svg version="1.1" id="Layer_1" xmlns="http://www.w3.org/2000/svg" xmlns:xlink="http://www.w3.org/1999/xlink" x="0px" y="0px"
	 viewBox="0 0 288 281.8" style="enable-background:new 0 0 288 281.8;" xml:space="preserve">
<style type="text/css">
	.st0{fill:#FFFFFF;}
	.st1{fill:url(#SVGID_1_);}
	.st2{fill:url(#SVGID_2_);}
	.st3{fill:url(#SVGID_3_);}
	.st4{fill:url(#SVGID_4_);}
	.st5{fill:url(#SVGID_5_);}
	.st6{fill:url(#SVGID_6_);}
	.st7{fill:url(#SVGID_7_);}
	.st8{fill:url(#SVGID_8_);}
	.st9{fill:url(#SVGID_9_);}
	.st10{fill:url(#SVGID_10_);}
	.st11{fill:url(#SVGID_11_);}
	.st12{fill:url(#SVGID_12_);}
	.st13{fill:url(#SVGID_13_);}
	.st14{fill:url(#SVGID_14_);}
	.st15{display:none;fill:#FFFFFF;}
</style>
<g>
	<path d="M276.8,141.8c-0.1,76.9-64,137.1-139.8,135.4C63.4,275.7,3.4,216,3.1,141.5C2.9,71.1,61,5.3,141.6,6.5
		C232.8,7.8,276.7,80,276.8,141.8z M253.7,198.9c4.8-9.3,8.4-18.6,10.3-28.4c0.7-3.5,0.7-7.4,0.1-11c-1.7-10.8-7.8-15-18.6-13.4
		c-4.6,0.7-9.3,1.3-13.9,1.2c-11.1-0.2-20.4-4-26.1-14.1c-1-1.8-2.2-2.6-4.1-3c-6.7-1.5-13.2-3.6-18.6-8.2
		c-5.5-4.6-7.5-11.2-4.8-17.8c1.5-3.6,3.8-7.1,6.1-10.2c7.2-9.5,8.1-19.4,2.5-29.8c-1.8-3.4-4.6-6.3-6.7-9.6
		c-0.9-1.4-1.8-3.2-1.9-4.8c-0.2-7.5-0.1-15-0.1-22.4c0-6.2,0-6.3-6.1-7.7c-3.8-0.9-7.7-1.6-11.3-2.3c-0.3,6.8-0.2,13-1,19.1
		c-1.2,9.2-5,16.7-15.4,18.4c-2.4,0.4-3.1,2.2-3.3,4.3c-0.2,2.6-0.2,5.2-0.2,7.8c-0.2,12.7-4.3,23.7-15,31.3
		c-3.1,2.2-7.2,3.8-11,4.1c-8.6,0.6-14-4.9-18.1-11.6c-0.7-1.1-0.7-2.6-0.8-3.9c-0.2-4.1,0.1-8.3-0.6-12.3c-1-6-4.3-7.9-10.3-8
		c-4.8-0.1-9.8-0.3-14.5-1.4c-7.9-1.8-14.3-6.6-19.8-12.7c-8.1,7.9-14.9,16.5-20.7,26.6c2-0.2,3.5-0.4,4.9-0.5
		c11.5-0.7,22.1,1.6,30.3,10.4c5.4,5.7,7.7,12.9,9.4,20.4c2.6,12,7.4,22.8,16,32.1c11.5,12.2,17.4,27.1,16.5,44.1
		c-0.4,8.3-1.2,16.7-2.8,24.8c-3.1,16.4-6.4,32.8-19.9,45.6c8.3,3,16.3,5.9,24.6,8.9c0-2.4,0.1-4,0-5.6c-0.6-10.2-0.2-20.4,2.1-30.4
		c2.4-10.2,6.4-19.7,15.3-26c13.4-9.5,28.4-13.8,44.8-12.8c4.7,0.3,7.8-1.8,11.1-4.3c1.6-1.3,1.7-2.6,0.4-4.5
		c-2.6-3.8-2.4-7.7,0.9-10.9c2.1-2,4.5-3.7,7.1-5c7.9-3.7,16.3-4.3,24.8-2.8c17.3,3.2,28.2,14.2,35.5,29.6
		C251.8,194.1,252.6,196.3,253.7,198.9z M12.9,136.4c0,2.9,0,5.8,0,8.7c0.3,22.4,7.1,42.8,19.1,61.5c10,15.4,22.2,28.8,37,39.8
		c5.1,3.8,9.1,3.2,12.9-1.9c2.4-3.2,4.4-6.7,6-10.4c5.6-13.5,7.8-27.9,9.5-42.3c2.1-18-3.2-33.4-15.6-46.4c-5-5.2-8.9-11-11.3-17.7
		c-2.4-6.5-4.2-13.2-6-19.9C61.8,97.4,56.1,89.8,45,88.3c-5.9-0.8-12,0.3-18.1,0.6c-2.1,0.1-3.2,1.3-4,3.2
		C16.9,106.3,13.4,121,12.9,136.4z M118.6,265.9c27.7,4.3,56.7-0.7,81-13.8c18-9.7,33.3-22.7,45.5-39.2c0.9-1.2,1.8-3.2,1.5-4.6
		c-1.9-8.2-5.1-15.9-10.3-22.6c-8.2-10.5-18.9-15.7-32.3-14.6c-4.8,0.4-9.4,1.5-13.2,4.7c3.6,9.9,1.8,15-7.5,20.1
		c-2.9,1.6-6.5,3.3-9.6,3.1c-13.2-0.9-25.4,1.6-37,7.8c-7.9,4.3-12.9,10.7-15.4,19.2C117.2,239.1,117.4,252.4,118.6,265.9z
		 M187.4,24.9c0,7.1-0.2,13.8,0.1,20.5c0.1,2.1,0.9,4.4,2.2,6.1c5.2,6.9,8.9,14.3,9.8,23c1,10.5-2.9,19.2-9.4,27.2
		c-6.1,7.5-4.8,12.4,4,16.5c1,0.5,2,0.9,3,1.2c4.8,1.3,9.6,2.4,14.8,3.8c1,7,5.2,12.2,12.6,13.8c4.9,1.1,10.1,0.8,15.1,0.8
		c3.8,0,7.6-1.3,11.3-0.9c4.9,0.6,9.7,2.3,14.3,3.5C264.4,87.5,238,45.2,187.4,24.9z M150.3,16c-34,1.2-66.1,6.9-92.9,29.8
		c7.3,8.4,16.3,12.2,27.2,11.3c8.7-0.7,15.8,3.4,18.4,11.7c1.4,4.6,2.2,9.6,2,14.3c-0.2,4.5,2.2,6.5,5.1,8.6
		c3.1,2.2,6.2,1.6,9.1-0.5c5.7-4,9.9-9.3,11-16.2c0.9-5.5,0.9-11.2,1.4-16.8c0.6-6.7,4.2-11.5,10.3-12.5c4.8-0.8,6.9-3.7,7.9-7.9
		C151.6,30.8,151.4,23.7,150.3,16z"/>
	<path class="st0" d="M253.7,198.9c-1.1-2.6-1.9-4.8-2.9-6.9c-7.3-15.3-18.2-26.4-35.5-29.6c-8.5-1.6-16.9-1-24.8,2.8
		c-2.6,1.2-5.1,3-7.1,5c-3.3,3.2-3.5,7.1-0.9,10.9c1.2,1.8,1.2,3.2-0.4,4.5c-3.2,2.5-6.4,4.6-11.1,4.3c-16.4-1.1-31.4,3.3-44.8,12.8
		c-8.9,6.3-12.9,15.8-15.3,26c-2.3,10-2.6,20.2-2.1,30.4c0.1,1.6,0,3.2,0,5.6c-8.3-3-16.2-5.9-24.6-8.9
		c13.6-12.7,16.8-29.2,19.9-45.6c1.5-8.2,2.3-16.5,2.8-24.8c0.9-17-5-31.9-16.5-44.1c-8.7-9.3-13.4-20.1-16-32.1
		c-1.7-7.5-4-14.7-9.4-20.4c-8.3-8.8-18.8-11-30.3-10.4c-1.5,0.1-2.9,0.3-4.9,0.5c5.9-10.1,12.7-18.7,20.7-26.6
		c5.5,6.2,11.9,10.9,19.8,12.7c4.7,1.1,9.6,1.3,14.5,1.4c6.1,0.1,9.3,2,10.3,8c0.7,4,0.4,8.2,0.6,12.3c0.1,1.3,0.2,2.8,0.8,3.9
		c4.2,6.7,9.5,12.2,18.1,11.6c3.8-0.3,7.9-1.9,11-4.1c10.7-7.5,14.8-18.5,15-31.3c0-2.6,0-5.2,0.2-7.8c0.1-2.1,0.9-3.9,3.3-4.3
		c10.4-1.7,14.2-9.2,15.4-18.4c0.8-6.1,0.7-12.3,1-19.1c3.6,0.7,7.5,1.4,11.3,2.3c6.1,1.5,6.1,1.5,6.1,7.7c0,7.5-0.1,15,0.1,22.4
		c0,1.6,0.9,3.4,1.9,4.8c2.1,3.3,4.8,6.2,6.7,9.6c5.6,10.4,4.7,20.3-2.5,29.8c-2.4,3.2-4.7,6.6-6.1,10.2c-2.7,6.6-0.6,13.2,4.8,17.8
		c5.4,4.5,11.8,6.7,18.6,8.2c1.9,0.4,3.1,1.2,4.1,3c5.7,10.1,15,13.9,26.1,14.1c4.6,0.1,9.3-0.5,13.9-1.2
		c10.8-1.6,16.9,2.6,18.6,13.4c0.6,3.6,0.6,7.4-0.1,11C262.2,180.3,258.5,189.6,253.7,198.9z M121.9,130.9c4,3.1,8.1,3.5,12.6,0.8
		c0.6-0.3,1.7-0.2,2.3,0.1c3.8,2.2,7.6,2.2,11.4-0.1c0.6-0.3,1.7-0.3,2.3,0c3,1.4,6.1,2.8,9.2,0.8c2.4-1.5,4.3-1.4,6.8,0.2
		c2.8,1.9,8.4,0.3,10.2-2.4c2.2-3.1,1.9-7.9-0.5-10.5c-2.8-3-5.5-6.1-8.4-9c-1-1-2.7-1.9-4.1-1.9c-14.4-0.1-28.9-0.1-43.3,0
		c-1.4,0-3.1,0.8-4.1,1.9c-3,3.1-5.6,6.5-8.4,9.8c-2.8,3.4-1.3,9.6,2.6,11.6C114.8,134.6,118.3,133.2,121.9,130.9z M161.8,156
		c4.9-4.3,6.3-10,3.4-13.5c-2.6-3.2-8.2-4.3-10.8-1.8c-2.2,2-4.6,4.5-3.5,7.9c0.9,2.7,2.7,5.1,3.9,7.4c-1.9,0-4.2,0-6.9,0
		c0-2.8,0-5.5,0-8.5c-2.8,0-5.2,0-7.7,0c-0.2-1.9-0.3-3.3-0.5-4.8c-5.6,0-10.8,0-16.5,0c0,4.6,0,8.9,0,13.4
		c-2.1,0.1-3.8,0.2-5.7,0.3c0,4.1-0.1,8,0.1,11.9c0,0.7,1.3,1.3,2,1.9c0.3-0.2,0.6-0.4,0.9-0.6c0-3.6,0-7.3,0-11
		c14.8,0,29.3,0,43.9,0c0,3.4-0.1,6.5,0,9.6c0,0.6,0.7,1.1,1,1.7c0.4-0.5,1.2-1,1.2-1.5c0.1-4,0.1-8,0.1-12.1
		C164.9,156.1,163.4,156.1,161.8,156z M175.1,135.5c-0.3-0.1-0.5-0.3-0.8-0.4c-0.6,1-1.8,1.9-1.8,2.9c-0.1,9.9-0.1,19.9-0.1,29.8
		c0,2.1,1,2.3,2.7,1.7C175.1,158.1,175.1,146.8,175.1,135.5z M110.6,135.1c-0.3,0.2-0.6,0.3-0.9,0.5c0,11.4,0,22.8,0,34.1
		c0.4,0.2,0.7,0.3,1.1,0.5c0.5-0.9,1.5-1.8,1.5-2.7c0.1-9.7,0.1-19.4,0-29.2C112.3,137.2,111.2,136.1,110.6,135.1z"/>
	<path class="st0" d="M12.9,136.4c0.6-15.4,4.1-30.1,10.1-44.3c0.8-1.9,1.8-3.1,4-3.2c6-0.3,12.2-1.4,18.1-0.6
		c11.1,1.5,16.9,9.1,19.6,19.6c1.7,6.7,3.6,13.4,6,19.9c2.4,6.7,6.3,12.5,11.3,17.7c12.4,13,17.7,28.4,15.6,46.4
		c-1.7,14.5-3.8,28.8-9.5,42.3c-1.5,3.7-3.6,7.2-6,10.4c-3.8,5.1-7.8,5.7-12.9,1.9c-14.8-11-27.1-24.4-37-39.8
		c-12.1-18.7-18.8-39.1-19.1-61.5C12.8,142.2,12.9,139.3,12.9,136.4z M73.9,180.5c1.3,2.4,3.3,2.4,5.1,1.1c1.7-1.2,1.6-2.8,0.3-4.5
		c-0.7-0.9-1.3-2-1.8-3c-0.8-1.9-2.1-2.4-4.1-2.3c-6.4,0.1-12.8,0-19.2,0c-3,0-7.4,5-6.8,8c0.2,0.8,1,2.2,1.4,2.2
		c1.7-0.1,3.4-0.7,5.5-1.2c2,2.1,3.2,2.1,6.1-0.3c1.7,2,3.6,2.5,5.9,0.8c0.3-0.2,1-0.3,1.3-0.1C70.1,183.2,72.1,182.3,73.9,180.5z
		 M48.9,184.3c0,5-0.1,9.7,0.1,14.3c0,0.8,1.1,2.3,1.8,2.4c5.2,0.2,10.3,0.1,15.9,0.1c0-5,0-9.8,0-14.7c2.9,0,5.5,0,8.3,0
		c0,5,0,9.9,0,14.7c3.2,0,3.6,0,3.7-2.5c0.2-4.7,0.1-9.5,0.1-14.3C68.7,184.3,59,184.3,48.9,184.3z M52.5,129
		c2.9,2.4,5.5,2.3,6.2-0.3c0.5-2.1-3.7-7.7-5.9-7.7c-6.5,0-13,0-19.5,0c-2,0-6.2,6.5-5.1,7.9c0.8,1,2.6,1.4,4.1,1.6
		c0.6,0.1,1.3-1,2-1.5c2,2.4,3.4,2.4,6.1,0c2,2.8,4.2,2.1,6.3,0.1C48.8,131.5,50,131.5,52.5,129z M46.3,134.9c2.8,0,5.1,0,7.7,0
		c0,4.5,0,8.9,0,13.3c0.3,0.2,0.6,0.4,0.9,0.6c0.7-0.8,2.1-1.6,2.1-2.4c0.2-4.5,0.1-9,0.1-13.4c-9.4,0-18.4,0-27.8,0
		c0,4.6-0.1,9,0.1,13.4c0,0.7,1,1.9,1.5,2c5,0.2,10.1,0.1,15.3,0.1C46.3,143.8,46.3,139.5,46.3,134.9z M51,170c8.7,0,16.9,0,25.8,0
		c-1.1-0.8-1.4-1.3-1.7-1.3c-7.5-0.1-15-0.1-22.5,0C52.2,168.6,51.8,169.3,51,170z M54.6,119.4c0-0.3,0-0.5,0-0.8
		c-7.5,0-15,0-22.5,0c0,0.3,0,0.5,0,0.8C39.6,119.4,47.1,119.4,54.6,119.4z"/>
	<path class="st0" d="M118.6,265.9c-1.3-13.5-1.4-26.8,2.6-39.8c2.6-8.5,7.5-14.9,15.4-19.2c11.6-6.2,23.8-8.7,37-7.8
		c3.1,0.2,6.7-1.5,9.6-3.1c9.3-5.1,11.1-10.2,7.5-20.1c3.8-3.1,8.4-4.3,13.2-4.7c13.4-1.1,24.1,4.1,32.3,14.6
		c5.2,6.7,8.4,14.4,10.3,22.6c0.3,1.3-0.6,3.3-1.5,4.6c-12.2,16.5-27.4,29.5-45.5,39.2C175.3,265.2,146.3,270.2,118.6,265.9z
		 M164,232.8c3,2.5,5.4,2.3,6.1-0.1c0.6-2.2-3.4-7.6-5.6-7.6c-6,0-11.9,0-17.9,0c-2.4,0-6.6,4.5-6.5,6.9c0.1,2,2.4,3.2,4.2,2.3
		c0.7-0.4,1.3-0.9,2-1.5c2.1,3.1,4.1,2.2,6-0.1c2,2.7,3.9,2.7,5.8,0.2C160.1,235.1,162,235.7,164,232.8z M141.4,236.3
		c0,4.4-0.1,8.4,0.1,12.5c0.1,1,1.2,2.8,1.9,2.9c4.7,0.3,9.4,0.1,14.4,0.1c0-4.8,0-9.1,0-13.4c2.7,0,5.1,0,7.8,0c0,4.6,0,9,0,13.3
		c0.3,0.2,0.6,0.3,0.9,0.5c0.7-0.8,2.1-1.6,2.1-2.4c0.2-4.5,0.1-9,0.1-13.5C159.5,236.3,150.7,236.3,141.4,236.3z M215.1,209
		c2.4,2.3,5,2.1,5.7-0.4c0.5-1.8-3.5-7.4-5.5-7.4c-6.5-0.1-13,0-19.5,0c-1.2,2-2.5,3.9-3.4,5.9c-0.3,0.8-0.1,2.3,0.5,2.8
		c0.7,0.6,2.1,0.7,3.1,0.5c0.6-0.1,1.2-1,1.8-1.5c1.9,3,3.9,2.3,5.8,0.1c2,3.1,4,1.9,5.9,0C211.6,211.9,213.4,210.8,215.1,209z
		 M219.3,212.3c-8.5,0-17,0-25.7,0c0,4.4-0.1,8.6,0.1,12.8c0,0.7,1,1.9,1.6,1.9c4.6,0.2,9.2,0.1,14.1,0.1c0-4.5,0-8.6,0-12.8
		c2.4,0,4.6,0,7.1,0c0,2.2,0,4.3,0,6.3c0,2.1,0,4.3,0,6.4C219.8,226.6,220.7,221.9,219.3,212.3z M195.7,199.9
		c7.1,0.5,14.1,0.5,21.8,0.5C215.5,198.2,198.6,198,195.7,199.9z M166,223.6c-4-2-19.4-1.8-22.3,0
		C151.5,223.6,158.7,223.6,166,223.6z"/>
	<path class="st0" d="M187.4,24.9c50.6,20.4,77.1,62.6,77.7,115.4c-4.7-1.2-9.4-2.9-14.3-3.5c-3.7-0.4-7.5,0.8-11.3,0.9
		c-5.1,0-10.3,0.3-15.1-0.8c-7.3-1.6-11.5-6.8-12.6-13.8c-5.2-1.3-10-2.5-14.8-3.8c-1-0.3-2-0.7-3-1.2c-8.8-4.1-10.1-8.9-4-16.5
		c6.5-8,10.4-16.7,9.4-27.2c-0.8-8.7-4.6-16.1-9.8-23c-1.2-1.7-2.1-4-2.2-6.1C187.2,38.6,187.4,31.9,187.4,24.9z M231.1,82.1
		c1.1,0.4,2.4,1.1,3.6,1c0.7,0,1.7-1.4,1.9-2.3c0.6-2.1-3.3-6.6-5.5-6.6c-5.3,0-10.6,0-15.9,0c-2.7,0-6.7,3.6-6.7,6.2
		c0,0.8,0.7,1.9,1.4,2.4c0.7,0.4,1.8,0.3,2.6,0.1c0.6-0.2,1.1-0.9,1.7-1.5c1.9,2.9,3.9,2.2,5.8,0.2c2.2,4.3,6.1-1.3,8.5,1.7
		C228.6,83.4,230.1,82.5,231.1,82.1z M209.8,84.7c0,4.4-0.1,8.6,0.1,12.8c0,0.7,1.2,1.9,1.9,1.9c4.3,0.2,8.6,0.1,13.2,0.1
		c0-4.5,0-8.7,0-12.8c2.7,0,5,0,7.5,0c0,2.3,0,4.3,0,6.4c0,2.1,0,4.2,0,6.4c2.9-0.9,3.6-6.4,2.3-14.8
		C226.7,84.7,218.5,84.7,209.8,84.7z M211.9,71.8c0,0.2,0,0.4,0,0.7c7.1,0,14.1,0,21.2,0c0-0.2,0-0.4,0-0.7
		C226.1,71.8,219,71.8,211.9,71.8z"/>
	<path class="st0" d="M150.3,16c1.1,7.7,1.3,14.8-0.5,21.8c-1,4.1-3,7.1-7.9,7.9c-6.1,1-9.7,5.8-10.3,12.5
		c-0.5,5.6-0.5,11.3-1.4,16.8c-1.2,6.9-5.3,12.2-11,16.2c-2.9,2-6,2.6-9.1,0.5c-2.9-2.1-5.3-4.1-5.1-8.6c0.2-4.8-0.5-9.8-2-14.3
		c-2.6-8.3-9.7-12.4-18.4-11.7c-10.9,0.9-19.9-2.9-27.2-11.3C84.3,22.9,116.4,17.2,150.3,16z M121.8,37.3c1.5,0.6,2.7,1.4,3.8,1.5
		c0.7,0,1.7-1,2-1.7c0.8-2.2-2.9-7-5.4-7.1c-4.7,0-9.3,0.3-14-0.1c-3.9-0.3-6.1,0.9-7.6,4.4c-0.6,1.4-1.3,2.3,0,3.6
		c1.3,1.3,2.3,1.1,3.6,0.2c0.4-0.3,1.3-0.4,1.7-0.1c2.2,1.7,3.7,0.8,5.1-1.1c1.9,2.9,3.8,2.1,5.6,0.3
		C119.3,39.5,119.8,39.5,121.8,37.3z M116.7,54.7c0-4.3,0-8.2,0-12.2c2.3,0,4.3,0,6.6,0c0,4.2,0,8.1,0,12.1c0.3,0.2,0.5,0.4,0.8,0.5
		c0.8-0.7,2.2-1.4,2.3-2.2c0.2-4.2,0.1-8.3,0.1-12.4c-8.7,0-16.9,0-25.4,0c0,3.9-0.1,7.7,0,11.4c0.1,1.8,0.9,2.9,3,2.8
		C108.1,54.6,112.1,54.7,116.7,54.7z M103.8,27.5c0,0.3,0,0.5,0,0.8c6.8,0,13.7,0,20.5,0c0-0.3,0-0.5,0-0.8
		C117.5,27.5,110.6,27.5,103.8,27.5z"/>
	<path d="M121.9,130.9c-3.6,2.3-7.1,3.7-11.3,1.5c-3.9-2.1-5.5-8.2-2.6-11.6c2.8-3.3,5.4-6.7,8.4-9.8c1-1,2.7-1.8,4.1-1.9
		c14.4-0.1,28.9-0.1,43.3,0c1.4,0,3.1,0.9,4.1,1.9c2.9,2.9,5.6,6,8.4,9c2.4,2.5,2.6,7.3,0.5,10.5c-1.9,2.7-7.4,4.3-10.2,2.4
		c-2.4-1.6-4.3-1.6-6.8-0.2c-3.2,1.9-6.2,0.6-9.2-0.8c-0.6-0.3-1.7-0.4-2.3,0c-3.8,2.2-7.5,2.2-11.4,0.1c-0.6-0.3-1.7-0.5-2.3-0.1
		C130,134.4,125.8,134,121.9,130.9z M135.7,111.9c-2,0-3.8-0.1-5.7,0c-0.6,0-1.5,0.4-1.8,0.9c-1.7,3.2-3.4,6.5-4.8,9.8
		c-1.4,3.6,0.8,7.8,4.2,8.6c2.8,0.6,5.9-1.8,6.3-5.2C134.7,121.5,135.2,116.9,135.7,111.9z M138.8,112.1c-0.7,4.4-1.5,8.5-1.8,12.7
		c-0.3,3.7,2.2,6.6,5.2,6.6c3.2,0.1,5.9-2.7,5.6-6.6c-0.3-4.3-1.2-8.5-1.9-12.8C143.5,112.1,141.4,112.1,138.8,112.1z M149.1,112.2
		c0.5,4.7,1,9.4,1.7,14.1c0.4,2.8,2.8,5,5.1,5c2.8,0,5.4-2.3,5.6-5.3c0.1-1.5-0.3-3.2-0.9-4.7c-0.7-1.8-2-3.3-2.9-5.1
		C155,111.2,155,111.2,149.1,112.2z M126,112.2c-6.6-0.7-6.6-0.6-10.1,3.6c-1.6,2-3.2,4-5,5.8c-2.1,2.2-2,4.8-0.5,6.8
		c1.1,1.5,3.5,2.8,5.3,2.7c2.9-0.1,4.1-2.5,4.7-5.4c0.5-2.6,1.4-5,2.4-7.5C123.7,116.3,124.8,114.4,126,112.2z M158.9,112.1
		c0.3,0.7,0.5,1.2,0.7,1.7c2,4.3,5.3,8,5.2,13.3c-0.1,2.1,1.6,4.5,4.1,4.1c2-0.3,4.3-1.5,5.5-3c1.4-1.7,1.6-4.2-0.3-6.2
		c-2.1-2.2-4.7-4.1-6-6.6C166,111.4,162.9,111.7,158.9,112.1z"/>
	<path d="M161.8,156c1.6,0.1,3.1,0.2,4.9,0.3c0,4.1,0,8.1-0.1,12.1c0,0.5-0.8,1-1.2,1.5c-0.4-0.5-1-1.1-1-1.7c-0.1-3.1,0-6.3,0-9.6
		c-14.7,0-29.1,0-43.9,0c0,3.7,0,7.4,0,11c-0.3,0.2-0.6,0.4-0.9,0.6c-0.7-0.6-2-1.3-2-1.9c-0.2-3.9-0.1-7.8-0.1-11.9
		c1.9-0.1,3.6-0.2,5.7-0.3c0-4.4,0-8.8,0-13.4c5.7,0,10.9,0,16.5,0c0.1,1.5,0.3,2.9,0.5,4.8c2.5,0,4.9,0,7.7,0c0,3.1,0,5.7,0,8.5
		c2.7,0,5.1,0,6.9,0c-1.2-2.3-3-4.7-3.9-7.4c-1.1-3.3,1.3-5.8,3.5-7.9c2.7-2.5,8.2-1.4,10.8,1.8C168.1,146,166.7,151.7,161.8,156z
		 M158.5,142.4c-3.3,0.1-4.9,1.9-4.9,5.4c0.1,3.5,1.8,5.3,5,5.3c3.3,0,5.7-2.5,5.6-5.8C164.2,144.5,161.6,142.3,158.5,142.4z
		 M131.2,156c0-2.9,0-5.5,0-8.5c1.7,0,3,0.3,4.2-0.1c0.8-0.2,1.2-1.4,2.1-2.5c-4.4,0-7.8,0-11.1,0c0,3.9,0,7.5,0,11.2
		C128,156,129.3,156,131.2,156z M134.3,155.9c3.6,0,6.9,0,10.4,0c0-1.9,0-3.6,0-5.4c-3.6,0-7,0-10.4,0
		C134.3,152.4,134.3,154,134.3,155.9z"/>
	<path d="M175.1,135.5c0,11.3,0,22.6,0,34c-1.7,0.6-2.7,0.4-2.7-1.7c0-9.9,0-19.9,0.1-29.8c0-1,1.2-2,1.8-2.9
		C174.6,135.2,174.9,135.4,175.1,135.5z"/>
	<path d="M110.6,135.1c0.6,1.1,1.7,2.1,1.7,3.2c0.1,9.7,0.1,19.4,0,29.2c0,0.9-1,1.8-1.5,2.7c-0.4-0.2-0.7-0.3-1.1-0.5
		c0-11.4,0-22.8,0-34.1C110,135.4,110.3,135.2,110.6,135.1z"/>
	<path d="M73.9,180.5c-1.9,1.8-3.8,2.8-6.2,0.8c-0.3-0.2-1-0.2-1.3,0.1c-2.2,1.7-4.2,1.2-5.9-0.8c-2.9,2.4-4.1,2.4-6.1,0.3
		c-2.1,0.5-3.8,1.1-5.5,1.2c-0.4,0-1.3-1.3-1.4-2.2c-0.6-3,3.8-8,6.8-8c6.4,0,12.8,0.1,19.2,0c2,0,3.3,0.4,4.1,2.3
		c0.4,1.1,1.1,2.1,1.8,3c1.3,1.6,1.4,3.3-0.3,4.5C77.2,182.8,75.3,182.8,73.9,180.5z"/>
	<path d="M48.9,184.3c10.1,0,19.8,0,29.8,0c0,4.8,0.2,9.5-0.1,14.3c-0.1,2.4-0.5,2.5-3.7,2.5c0-4.8,0-9.7,0-14.7c-2.8,0-5.4,0-8.3,0
		c0,4.9,0,9.7,0,14.7c-5.6,0-10.7,0.1-15.9-0.1c-0.6,0-1.7-1.5-1.8-2.4C48.8,194,48.9,189.3,48.9,184.3z M52.3,193.7
		c4,0,7.8,0,11.5,0c0-2.6,0-4.9,0-7.4c-3.9,0-7.6,0-11.5,0C52.3,188.9,52.3,191.2,52.3,193.7z M63.7,196.2c0-0.2,0-0.4,0-0.6
		c-3.8,0-7.6,0-11.4,0c0,0.2,0,0.4,0,0.6C56.1,196.2,59.9,196.2,63.7,196.2z"/>
	<path d="M52.5,129c-2.5,2.5-3.6,2.5-5.9,0.1c-2.1,2-4.3,2.7-6.3-0.1c-2.7,2.5-4.1,2.5-6.1,0c-0.7,0.5-1.4,1.6-2,1.5
		c-1.4-0.2-3.2-0.6-4.1-1.6c-1.2-1.4,3.1-7.9,5.1-7.9c6.5,0,13,0,19.5,0c2.2,0,6.4,5.6,5.9,7.7C58,131.4,55.4,131.5,52.5,129z"/>
	<path d="M46.3,134.9c0,4.6,0,8.9,0,13.5c-5.2,0-10.3,0.1-15.3-0.1c-0.6,0-1.5-1.3-1.5-2c-0.1-4.4-0.1-8.8-0.1-13.4
		c9.3,0,18.4,0,27.8,0c0,4.4,0.1,8.9-0.1,13.4c0,0.8-1.4,1.6-2.1,2.4c-0.3-0.2-0.6-0.4-0.9-0.6c0-4.4,0-8.8,0-13.3
		C51.4,134.9,49,134.9,46.3,134.9z M42.9,134.9c-3.8,0-7.2,0-10.7,0c0,2.4,0,4.6,0,6.8c3.7,0,7.2,0,10.7,0
		C42.9,139.3,42.9,137.2,42.9,134.9z M42.9,144c0-0.2,0-0.4,0-0.6c-3.5,0-7,0-10.5,0c0,0.2,0,0.4,0,0.6C35.9,144,39.4,144,42.9,144z
		"/>
	<path d="M51,170c0.7-0.6,1.2-1.4,1.6-1.4c7.5,0,15,0,22.5,0c0.3,0,0.7,0.5,1.7,1.3C67.9,170,59.8,170,51,170z"/>
	<path d="M54.6,119.4c-7.5,0-15,0-22.5,0c0-0.3,0-0.5,0-0.8c7.5,0,15,0,22.5,0C54.6,118.9,54.6,119.2,54.6,119.4z"/>
	<path d="M164,232.8c-2,2.9-3.9,2.3-6,0.2c-1.9,2.5-3.8,2.5-5.8-0.2c-1.9,2.3-3.9,3.2-6,0.1c-0.7,0.5-1.3,1.1-2,1.5
		c-1.8,1-4.1-0.3-4.2-2.3c-0.1-2.4,4.1-6.9,6.5-6.9c6,0,11.9,0,17.9,0c2.3,0,6.3,5.4,5.6,7.6C169.4,235.2,167,235.3,164,232.8z"/>
	<path d="M141.4,236.3c9.3,0,18.1,0,27.3,0c0,4.6,0.1,9.1-0.1,13.5c0,0.8-1.4,1.6-2.1,2.4c-0.3-0.2-0.6-0.3-0.9-0.5
		c0-4.4,0-8.7,0-13.3c-2.7,0-5.2,0-7.8,0c0,4.3,0,8.6,0,13.4c-4.9,0-9.7,0.1-14.4-0.1c-0.7,0-1.9-1.8-1.9-2.9
		C141.3,244.7,141.4,240.6,141.4,236.3z M154.9,245.2c0-2.5,0-4.7,0-6.8c-3.5,0-6.8,0-10,0c0,2.4,0,4.5,0,6.8
		C148.2,245.2,151.4,245.2,154.9,245.2z"/>
	<path d="M215.1,209c-1.7,1.9-3.6,2.9-5.5-0.1c-1.9,1.9-3.9,3.1-5.9,0c-1.9,2.2-3.9,3-5.8-0.1c-0.6,0.6-1.2,1.4-1.8,1.5
		c-1,0.1-2.4,0-3.1-0.5c-0.6-0.5-0.9-2-0.5-2.8c0.9-2,2.2-3.9,3.4-5.9c6.5,0,13,0,19.5,0c1.9,0,5.9,5.6,5.5,7.4
		C220.2,211,217.5,211.3,215.1,209z"/>
	<path d="M219.3,212.3c1.4,9.5,0.6,14.2-2.9,14.7c0-2.2,0-4.3,0-6.4c0-2,0-4.1,0-6.3c-2.4,0-4.6,0-7.1,0c0,4.2,0,8.3,0,12.8
		c-4.8,0-9.4,0.1-14.1-0.1c-0.6,0-1.6-1.2-1.6-1.9c-0.1-4.2-0.1-8.4-0.1-12.8C202.3,212.3,210.8,212.3,219.3,212.3z M196.3,220.5
		c3.6,0,6.8,0,10.1,0c0-2.2,0-4.2,0-6.2c-3.5,0-6.8,0-10.1,0C196.3,216.5,196.3,218.4,196.3,220.5z M196.4,222.1c0,0.3,0,0.7,0.1,1
		c3.3-0.1,6.6,0.4,9.8-1C202.9,222.1,199.6,222.1,196.4,222.1z"/>
	<path d="M195.7,199.9c2.8-2,19.7-1.7,21.8,0.5C209.8,200.4,202.8,200.5,195.7,199.9z"/>
	<path d="M166,223.6c-7.3,0-14.6,0-22.3,0C146.6,221.8,162,221.6,166,223.6z"/>
	<path d="M231.1,82.1c-1,0.4-2.5,1.3-2.7,1.1c-2.4-3-6.4,2.6-8.5-1.7c-1.8,2-3.8,2.7-5.8-0.2c-0.6,0.6-1.1,1.3-1.7,1.5
		c-0.8,0.2-2,0.4-2.6-0.1c-0.7-0.4-1.4-1.5-1.4-2.4c0-2.7,4-6.2,6.7-6.2c5.3,0,10.6,0,15.9,0c2.2,0,6,4.5,5.5,6.6
		c-0.2,0.9-1.2,2.2-1.9,2.3C233.5,83.2,232.2,82.4,231.1,82.1z"/>
	<path d="M209.8,84.7c8.7,0,16.9,0,25,0c1.3,8.4,0.6,14-2.3,14.8c0-2.2,0-4.3,0-6.4c0-2,0-4.1,0-6.4c-2.5,0-4.8,0-7.5,0
		c0,4.1,0,8.2,0,12.8c-4.7,0-8.9,0.1-13.2-0.1c-0.7,0-1.8-1.2-1.9-1.9C209.8,93.3,209.8,89.1,209.8,84.7z M212.7,86.7
		c0,2.2,0,4.2,0,6.2c3.5,0,6.8,0,10.1,0c0-2.2,0-4.1,0-6.2C219.4,86.7,216.1,86.7,212.7,86.7z M222.4,95.3c0-0.2,0.1-0.4,0.1-0.6
		c-3.3,0-6.6,0-9.9,0c0,0.2,0,0.4,0,0.6C215.9,95.3,219.1,95.3,222.4,95.3z"/>
	<path d="M211.9,71.8c7.1,0,14.1,0,21.2,0c0,0.2,0,0.4,0,0.7c-7.1,0-14.1,0-21.2,0C212,72.3,212,72.1,211.9,71.8z"/>
	<path d="M121.8,37.3c-2,2.3-2.5,2.3-4.9-0.1c-1.9,1.8-3.8,2.7-5.6-0.3c-1.4,1.9-3,2.8-5.1,1.1c-0.3-0.3-1.3-0.2-1.7,0.1
		c-1.3,0.9-2.3,1.1-3.6-0.2c-1.3-1.3-0.6-2.2,0-3.6c1.5-3.5,3.7-4.8,7.6-4.4c4.6,0.4,9.3,0.1,14,0.1c2.4,0,6.2,4.8,5.4,7.1
		c-0.3,0.8-1.4,1.8-2,1.7C124.4,38.6,123.3,37.9,121.8,37.3z"/>
	<path d="M116.7,54.7c-4.6,0-8.6-0.1-12.6,0c-2.2,0.1-3-1-3-2.8c-0.1-3.8,0-7.5,0-11.4c8.5,0,16.7,0,25.4,0c0,4.1,0.1,8.3-0.1,12.4
		c0,0.8-1.5,1.5-2.3,2.2c-0.3-0.2-0.5-0.4-0.8-0.5c0-4,0-7.9,0-12.1c-2.3,0-4.3,0-6.6,0C116.7,46.5,116.7,50.5,116.7,54.7z
		 M103.8,48.6c3.5,0,6.8,0,10,0c0-2.2,0-4.2,0-6.1c-3.5,0-6.7,0-10,0C103.8,44.5,103.8,46.4,103.8,48.6z M103.9,49.8
		c0,0.2,0,0.4,0,0.7c3.2,0,6.5,0,9.7,0c0-0.2,0-0.4,0-0.7C110.3,49.8,107.1,49.8,103.9,49.8z"/>
	<path d="M103.8,27.5c6.8,0,13.7,0,20.5,0c0,0.3,0,0.5,0,0.8c-6.8,0-13.7,0-20.5,0C103.8,28,103.8,27.8,103.8,27.5z"/>
	<linearGradient id="SVGID_1_" gradientUnits="userSpaceOnUse" x1="123.0696" y1="121.6452" x2="135.7499" y2="121.6452">
		<stop  offset="0" style="stop-color:#F12711"/>
		<stop  offset="0.2153" style="stop-color:#F25113"/>
		<stop  offset="0.455" style="stop-color:#F37A16"/>
		<stop  offset="0.6741" style="stop-color:#F49718"/>
		<stop  offset="0.863" style="stop-color:#F5A919"/>
		<stop  offset="1" style="stop-color:#F5AF19"/>
	</linearGradient>
	<path class="st1" d="M135.7,111.9c-0.6,5-1.1,9.6-1.7,14.2c-0.4,3.3-3.5,5.8-6.3,5.2c-3.4-0.8-5.7-5-4.2-8.6
		c1.4-3.4,3.1-6.6,4.8-9.8c0.3-0.5,1.2-0.9,1.8-0.9C131.9,111.8,133.8,111.9,135.7,111.9z"/>
	<linearGradient id="SVGID_2_" gradientUnits="userSpaceOnUse" x1="136.9797" y1="121.7308" x2="147.8094" y2="121.7308">
		<stop  offset="0" style="stop-color:#F12711"/>
		<stop  offset="0.2153" style="stop-color:#F25113"/>
		<stop  offset="0.455" style="stop-color:#F37A16"/>
		<stop  offset="0.6741" style="stop-color:#F49718"/>
		<stop  offset="0.863" style="stop-color:#F5A919"/>
		<stop  offset="1" style="stop-color:#F5AF19"/>
	</linearGradient>
	<path class="st2" d="M138.8,112.1c2.5,0,4.7,0,7.1,0c0.7,4.3,1.6,8.5,1.9,12.8c0.3,3.8-2.4,6.6-5.6,6.6c-3-0.1-5.4-2.9-5.2-6.6
		C137.3,120.6,138.2,116.5,138.8,112.1z"/>
	<linearGradient id="SVGID_3_" gradientUnits="userSpaceOnUse" x1="149.0902" y1="121.5567" x2="161.4941" y2="121.5567">
		<stop  offset="0" style="stop-color:#F12711"/>
		<stop  offset="0.2153" style="stop-color:#F25113"/>
		<stop  offset="0.455" style="stop-color:#F37A16"/>
		<stop  offset="0.6741" style="stop-color:#F49718"/>
		<stop  offset="0.863" style="stop-color:#F5A919"/>
		<stop  offset="1" style="stop-color:#F5AF19"/>
	</linearGradient>
	<path class="st3" d="M149.1,112.2c5.9-1,6-1,8.7,4.1c0.9,1.7,2.1,3.3,2.9,5.1c0.6,1.4,0.9,3.1,0.9,4.7c-0.2,3-2.7,5.3-5.6,5.3
		c-2.3,0-4.8-2.2-5.1-5C150.1,121.7,149.6,117,149.1,112.2z"/>
	<linearGradient id="SVGID_4_" gradientUnits="userSpaceOnUse" x1="109.3036" y1="121.4795" x2="125.9798" y2="121.4795">
		<stop  offset="0" style="stop-color:#F12711"/>
		<stop  offset="0.2153" style="stop-color:#F25113"/>
		<stop  offset="0.455" style="stop-color:#F37A16"/>
		<stop  offset="0.6741" style="stop-color:#F49718"/>
		<stop  offset="0.863" style="stop-color:#F5A919"/>
		<stop  offset="1" style="stop-color:#F5AF19"/>
	</linearGradient>
	<path class="st4" d="M126,112.2c-1.2,2.3-2.3,4.1-3.1,6.1c-1,2.4-1.9,4.9-2.4,7.5c-0.6,2.8-1.8,5.3-4.7,5.4
		c-1.8,0.1-4.2-1.2-5.3-2.7c-1.6-2-1.6-4.6,0.5-6.8c1.7-1.9,3.3-3.9,5-5.8C119.4,111.5,119.4,111.5,126,112.2z"/>
	<linearGradient id="SVGID_5_" gradientUnits="userSpaceOnUse" x1="158.9079" y1="121.5641" x2="175.5377" y2="121.5641">
		<stop  offset="0" style="stop-color:#F12711"/>
		<stop  offset="0.2153" style="stop-color:#F25113"/>
		<stop  offset="0.455" style="stop-color:#F37A16"/>
		<stop  offset="0.6741" style="stop-color:#F49718"/>
		<stop  offset="0.863" style="stop-color:#F5A919"/>
		<stop  offset="1" style="stop-color:#F5AF19"/>
	</linearGradient>
	<path class="st5" d="M158.9,112.1c4-0.4,7.1-0.6,9.2,3.3c1.4,2.6,4,4.5,6,6.6c1.9,2,1.7,4.5,0.3,6.2c-1.3,1.5-3.6,2.7-5.5,3
		c-2.5,0.4-4.2-2.1-4.1-4.1c0.1-5.3-3.2-9-5.2-13.3C159.4,113.3,159.2,112.8,158.9,112.1z"/>
	<linearGradient id="SVGID_6_" gradientUnits="userSpaceOnUse" x1="153.6692" y1="147.6906" x2="164.3143" y2="147.6906">
		<stop  offset="0" style="stop-color:#F12711"/>
		<stop  offset="0.2153" style="stop-color:#F25113"/>
		<stop  offset="0.455" style="stop-color:#F37A16"/>
		<stop  offset="0.6741" style="stop-color:#F49718"/>
		<stop  offset="0.863" style="stop-color:#F5A919"/>
		<stop  offset="1" style="stop-color:#F5AF19"/>
	</linearGradient>
	<path class="st6" d="M158.5,142.4c3.1-0.1,5.7,2.2,5.8,4.9c0.1,3.3-2.3,5.8-5.6,5.8c-3.3,0-4.9-1.7-5-5.3
		C153.6,144.3,155.3,142.4,158.5,142.4z"/>
	<linearGradient id="SVGID_7_" gradientUnits="userSpaceOnUse" x1="126.4261" y1="150.3681" x2="137.4947" y2="150.3681">
		<stop  offset="0" style="stop-color:#F12711"/>
		<stop  offset="0.2153" style="stop-color:#F25113"/>
		<stop  offset="0.455" style="stop-color:#F37A16"/>
		<stop  offset="0.6741" style="stop-color:#F49718"/>
		<stop  offset="0.863" style="stop-color:#F5A919"/>
		<stop  offset="1" style="stop-color:#F5AF19"/>
	</linearGradient>
	<path class="st7" d="M131.2,156c-1.9,0-3.2,0-4.7,0c0-3.7,0-7.3,0-11.2c3.3,0,6.7,0,11.1,0c-0.9,1.1-1.4,2.3-2.1,2.5
		c-1.2,0.4-2.5,0.1-4.2,0.1C131.2,150.4,131.2,153.1,131.2,156z"/>
	<linearGradient id="SVGID_8_" gradientUnits="userSpaceOnUse" x1="134.2588" y1="153.2245" x2="144.6615" y2="153.2245">
		<stop  offset="0" style="stop-color:#F12711"/>
		<stop  offset="0.2153" style="stop-color:#F25113"/>
		<stop  offset="0.455" style="stop-color:#F37A16"/>
		<stop  offset="0.6741" style="stop-color:#F49718"/>
		<stop  offset="0.863" style="stop-color:#F5A919"/>
		<stop  offset="1" style="stop-color:#F5AF19"/>
	</linearGradient>
	<path class="st8" d="M134.3,155.9c0-1.9,0-3.5,0-5.4c3.4,0,6.8,0,10.4,0c0,1.7,0,3.5,0,5.4C141.2,155.9,137.9,155.9,134.3,155.9z"
		/>
	<path class="st0" d="M52.3,193.7c0-2.5,0-4.9,0-7.4c3.9,0,7.6,0,11.5,0c0,2.5,0,4.8,0,7.4C60,193.7,56.3,193.7,52.3,193.7z"/>
	<path class="st0" d="M63.7,196.2c-3.8,0-7.6,0-11.4,0c0-0.2,0-0.4,0-0.6c3.8,0,7.6,0,11.4,0C63.7,195.8,63.7,196,63.7,196.2z"/>
	<path class="st0" d="M42.9,134.9c0,2.3,0,4.4,0,6.8c-3.5,0-7,0-10.7,0c0-2.2,0-4.4,0-6.8C35.7,134.9,39.1,134.9,42.9,134.9z"/>
	<path class="st0" d="M42.9,144c-3.5,0-7,0-10.5,0c0-0.2,0-0.4,0-0.6c3.5,0,7,0,10.5,0C42.9,143.6,42.9,143.8,42.9,144z"/>
	<path class="st0" d="M154.9,245.2c-3.4,0-6.7,0-10,0c0-2.3,0-4.4,0-6.8c3.2,0,6.5,0,10,0C154.9,240.5,154.9,242.7,154.9,245.2z"/>
	<path class="st0" d="M196.3,220.5c0-2.1,0-4,0-6.2c3.3,0,6.6,0,10.1,0c0,2,0,4,0,6.2C203.1,220.5,199.9,220.5,196.3,220.5z"/>
	<path class="st0" d="M196.4,222.1c3.3,0,6.6,0,9.8,0c-3.2,1.5-6.5,0.9-9.8,1C196.4,222.8,196.4,222.5,196.4,222.1z"/>
	<path class="st0" d="M212.7,86.7c3.5,0,6.7,0,10.1,0c0,2.1,0,4,0,6.2c-3.3,0-6.5,0-10.1,0C212.7,90.9,212.7,88.9,212.7,86.7z"/>
	<path class="st0" d="M222.4,95.3c-3.3,0-6.5,0-9.8,0c0-0.2,0-0.4,0-0.6c3.3,0,6.6,0,9.9,0C222.4,94.9,222.4,95.1,222.4,95.3z"/>
	<path class="st0" d="M103.8,48.6c0-2.1,0-4.1,0-6.1c3.3,0,6.6,0,10,0c0,1.9,0,3.9,0,6.1C110.6,48.6,107.3,48.6,103.8,48.6z"/>
	<path class="st0" d="M103.9,49.8c3.2,0,6.5,0,9.7,0c0,0.2,0,0.4,0,0.7c-3.2,0-6.5,0-9.7,0C103.9,50.3,103.9,50,103.9,49.8z"/>
</g>
<g transform="translate(0.000000,1280.000000) scale(0.100000,-0.100000)">
	<linearGradient id="SVGID_9_" gradientUnits="userSpaceOnUse" x1="2159.4875" y1="12096.3564" x2="2173.0215" y2="12096.3564">
		<stop  offset="0" style="stop-color:#F12711"/>
		<stop  offset="0.2153" style="stop-color:#F25113"/>
		<stop  offset="0.455" style="stop-color:#F37A16"/>
		<stop  offset="0.6741" style="stop-color:#F49718"/>
		<stop  offset="0.863" style="stop-color:#F5A919"/>
		<stop  offset="1" style="stop-color:#F5AF19"/>
	</linearGradient>
	<path class="st9" d="M2222.3,12194c-9.1-0.7-17-2.9-25-6.8c-23.8-11.6-38.7-36.3-37.9-62.6c0.3-9.9,2.5-18.8,6.6-27.4
		c1.8-3.7,3-5.8,5.4-9.4c1.1-1.6,14-22.3,28.7-46.1c14.7-23.8,26.8-43.3,26.9-43.3s12.2,19.5,26.9,43.3
		c14.7,23.8,27.6,44.6,28.7,46.1c2.4,3.6,3.6,5.7,5.4,9.4c6.9,14.2,8.5,30.5,4.6,46c-4,15.6-13.4,29.3-26.7,38.7
		c-11.4,8-25.3,12.4-39.2,12.3C2225.2,12194.2,2223.2,12194.1,2222.3,12194z M2232.7,12165.3c7.2-1.3,13.3-4.4,18.3-9.4
		c12.5-12.4,13.5-32.3,2.1-45.9c-5.5-6.6-13.3-10.8-21.9-11.9c-1.9-0.2-6.2-0.2-8,0c-13.9,1.7-25.3,11.7-28.8,25.2
		c-2.3,8.9-0.8,18.5,4,26.3c5.4,8.7,14.1,14.3,24.4,15.8C2224.9,12165.7,2230.6,12165.6,2232.7,12165.3z"/>
</g>
<g transform="translate(0.000000,1280.000000) scale(0.100000,-0.100000)">
	<linearGradient id="SVGID_10_" gradientUnits="userSpaceOnUse" x1="1068.2098" y1="12551.2656" x2="1081.7438" y2="12551.2656">
		<stop  offset="0" style="stop-color:#F12711"/>
		<stop  offset="0.2153" style="stop-color:#F25113"/>
		<stop  offset="0.455" style="stop-color:#F37A16"/>
		<stop  offset="0.6741" style="stop-color:#F49718"/>
		<stop  offset="0.863" style="stop-color:#F5A919"/>
		<stop  offset="1" style="stop-color:#F5AF19"/>
	</linearGradient>
	<path class="st10" d="M1131.1,12649c-9.1-0.7-17-2.9-25-6.8c-23.8-11.6-38.7-36.3-37.9-62.6c0.3-9.9,2.5-18.8,6.6-27.4
		c1.8-3.7,3-5.8,5.4-9.4c1.1-1.6,14-22.3,28.7-46.1c14.7-23.8,26.8-43.3,26.9-43.3c0.1,0,12.2,19.5,26.9,43.3
		c14.7,23.8,27.6,44.6,28.7,46.1c2.4,3.6,3.6,5.7,5.4,9.4c6.9,14.2,8.5,30.5,4.6,46c-4,15.6-13.4,29.3-26.7,38.7
		c-11.4,8-25.3,12.4-39.2,12.3C1134,12649.1,1132,12649,1131.1,12649z M1141.4,12620.2c7.2-1.3,13.3-4.4,18.3-9.4
		c12.5-12.4,13.5-32.3,2.1-45.9c-5.5-6.6-13.3-10.8-21.9-11.9c-1.9-0.2-6.2-0.2-8,0c-13.9,1.7-25.3,11.7-28.8,25.2
		c-2.3,8.9-0.8,18.5,4,26.3c5.4,8.7,14.1,14.3,24.4,15.8C1133.6,12620.7,1139.3,12620.6,1141.4,12620.2z"/>
</g>
<g transform="translate(0.000000,1280.000000) scale(0.100000,-0.100000)">
	<linearGradient id="SVGID_11_" gradientUnits="userSpaceOnUse" x1="361.0333" y1="11655" x2="374.5672" y2="11655">
		<stop  offset="0" style="stop-color:#F12711"/>
		<stop  offset="0.2153" style="stop-color:#F25113"/>
		<stop  offset="0.455" style="stop-color:#F37A16"/>
		<stop  offset="0.6741" style="stop-color:#F49718"/>
		<stop  offset="0.863" style="stop-color:#F5A919"/>
		<stop  offset="1" style="stop-color:#F5AF19"/>
	</linearGradient>
	<path class="st11" d="M423.9,11752.7c-9.1-0.7-17-2.9-25-6.8c-23.8-11.6-38.7-36.3-37.9-62.6c0.3-9.9,2.5-18.8,6.6-27.4
		c1.8-3.7,3-5.8,5.4-9.4c1.1-1.6,14-22.3,28.7-46.1c14.7-23.8,26.8-43.3,26.9-43.3s12.2,19.5,26.9,43.3
		c14.7,23.8,27.6,44.6,28.7,46.1c2.4,3.6,3.6,5.7,5.4,9.4c6.9,14.2,8.5,30.5,4.6,46c-4,15.6-13.4,29.3-26.7,38.7
		c-11.4,8-25.3,12.4-39.2,12.3C426.8,11752.8,424.8,11752.8,423.9,11752.7z M434.2,11723.9c7.2-1.3,13.3-4.4,18.3-9.4
		c12.5-12.4,13.5-32.3,2.1-45.9c-5.5-6.6-13.3-10.8-21.9-11.9c-1.9-0.2-6.2-0.2-8,0c-13.9,1.7-25.3,11.7-28.8,25.2
		c-2.3,8.9-0.8,18.5,4,26.3c5.4,8.7,14.1,14.3,24.4,15.8C426.4,11724.4,432.1,11724.3,434.2,11723.9z"/>
</g>
<g transform="translate(0.000000,1280.000000) scale(0.100000,-0.100000)">
	<linearGradient id="SVGID_12_" gradientUnits="userSpaceOnUse" x1="569.4341" y1="11127.042" x2="582.968" y2="11127.042">
		<stop  offset="0" style="stop-color:#F12711"/>
		<stop  offset="0.2153" style="stop-color:#F25113"/>
		<stop  offset="0.455" style="stop-color:#F37A16"/>
		<stop  offset="0.6741" style="stop-color:#F49718"/>
		<stop  offset="0.863" style="stop-color:#F5A919"/>
		<stop  offset="1" style="stop-color:#F5AF19"/>
	</linearGradient>
	<path class="st12" d="M632.3,11224.7c-9.1-0.7-17-2.9-25-6.8c-23.8-11.6-38.7-36.3-37.9-62.6c0.3-9.9,2.5-18.8,6.6-27.4
		c1.8-3.7,3-5.8,5.4-9.4c1.1-1.6,14-22.3,28.7-46.1c14.7-23.8,26.8-43.3,26.9-43.3s12.2,19.5,26.9,43.3
		c14.7,23.8,27.6,44.6,28.7,46.1c2.4,3.6,3.6,5.7,5.4,9.4c6.9,14.2,8.5,30.5,4.6,46c-4,15.6-13.4,29.3-26.7,38.7
		c-11.4,8-25.3,12.4-39.2,12.3C635.2,11224.9,633.2,11224.8,632.3,11224.7z M642.6,11196c7.2-1.3,13.3-4.4,18.3-9.4
		c12.5-12.4,13.5-32.3,2.1-45.9c-5.5-6.6-13.3-10.8-21.9-11.9c-1.9-0.2-6.2-0.2-8,0c-13.9,1.7-25.3,11.7-28.8,25.2
		c-2.3,8.9-0.8,18.5,4,26.3c5.4,8.7,14.1,14.3,24.4,15.8C634.8,11196.4,640.5,11196.3,642.6,11196z"/>
</g>
<g transform="translate(0.000000,1280.000000) scale(0.100000,-0.100000)">
	<linearGradient id="SVGID_13_" gradientUnits="userSpaceOnUse" x1="1485.2518" y1="10602.8193" x2="1498.7858" y2="10602.8193">
		<stop  offset="0" style="stop-color:#F12711"/>
		<stop  offset="0.2153" style="stop-color:#F25113"/>
		<stop  offset="0.455" style="stop-color:#F37A16"/>
		<stop  offset="0.6741" style="stop-color:#F49718"/>
		<stop  offset="0.863" style="stop-color:#F5A919"/>
		<stop  offset="1" style="stop-color:#F5AF19"/>
	</linearGradient>
	<path class="st13" d="M1548.1,10700.5c-9.1-0.7-17-2.9-25-6.8c-23.8-11.6-38.7-36.3-37.9-62.6c0.3-9.9,2.5-18.8,6.6-27.4
		c1.8-3.7,3-5.8,5.4-9.4c1.1-1.6,14-22.3,28.7-46.1c14.7-23.8,26.8-43.3,26.9-43.3c0.1,0,12.2,19.5,26.9,43.3
		c14.7,23.8,27.6,44.6,28.7,46.1c2.4,3.6,3.6,5.7,5.4,9.4c6.9,14.2,8.5,30.5,4.6,46c-4,15.6-13.4,29.3-26.7,38.7
		c-11.4,8-25.3,12.4-39.2,12.3C1551,10700.7,1549,10700.6,1548.1,10700.5z M1558.5,10671.7c7.2-1.3,13.3-4.4,18.3-9.4
		c12.5-12.4,13.5-32.3,2.1-45.9c-5.5-6.6-13.3-10.8-21.9-11.9c-1.9-0.2-6.2-0.2-8,0c-13.9,1.7-25.3,11.7-28.8,25.2
		c-2.3,8.9-0.8,18.5,4,26.3c5.4,8.7,14.1,14.3,24.4,15.8C1550.6,10672.2,1556.4,10672.1,1558.5,10671.7z"/>
</g>
<g transform="translate(0.000000,1280.000000) scale(0.100000,-0.100000)">
	<linearGradient id="SVGID_14_" gradientUnits="userSpaceOnUse" x1="1999.5388" y1="10843.7568" x2="2013.0726" y2="10843.7568">
		<stop  offset="0" style="stop-color:#F12711"/>
		<stop  offset="0.2153" style="stop-color:#F25113"/>
		<stop  offset="0.455" style="stop-color:#F37A16"/>
		<stop  offset="0.6741" style="stop-color:#F49718"/>
		<stop  offset="0.863" style="stop-color:#F5A919"/>
		<stop  offset="1" style="stop-color:#F5AF19"/>
	</linearGradient>
	<path class="st14" d="M2062.4,10941.4c-9.1-0.7-17-2.9-25-6.8c-23.8-11.6-38.7-36.3-37.9-62.6c0.3-9.9,2.5-18.8,6.6-27.4
		c1.8-3.7,3-5.8,5.4-9.4c1.1-1.6,14-22.3,28.7-46.1c14.7-23.8,26.8-43.3,26.9-43.3s12.2,19.5,26.9,43.3
		c14.7,23.8,27.6,44.6,28.7,46.1c2.4,3.6,3.6,5.7,5.4,9.4c6.9,14.2,8.5,30.5,4.6,46c-4,15.6-13.4,29.3-26.7,38.7
		c-11.4,8-25.3,12.4-39.2,12.3C2065.3,10941.6,2063.3,10941.5,2062.4,10941.4z M2072.8,10912.7c7.2-1.3,13.3-4.4,18.3-9.4
		c12.5-12.4,13.5-32.3,2.1-45.9c-5.5-6.6-13.3-10.8-21.9-11.9c-1.9-0.2-6.2-0.2-8,0c-13.9,1.7-25.3,11.7-28.8,25.2
		c-2.3,8.9-0.8,18.5,4,26.3c5.4,8.7,14.1,14.3,24.4,15.8C2064.9,10913.1,2070.6,10913,2072.8,10912.7z"/>
</g>
<path class="st15" d="M-322,339.5"/>
<path class="st0" d="M662-173.5"/>
<line class="st0" x1="450" y1="-57.5" x2="450" y2="-244.5"/>
</svg>
