<?xml version="1.0" encoding="utf-8"?>
<!-- Generator: Adobe Illustrator 24.0.0, SVG Export Plug-In . SVG Version: 6.00 Build 0)  -->
<svg version="1.1" id="Calque_1" xmlns="http://www.w3.org/2000/svg" xmlns:xlink="http://www.w3.org/1999/xlink" x="0px" y="0px"
	 viewBox="0 0 788.1 381.4" style="enable-background:new 0 0 788.1 381.4;" xml:space="preserve">
<style type="text/css">
	.st0{fill:url(#SVGID_1_);}
	.st1{fill:url(#SVGID_2_);}
	.st2{font-family:'TimeBurner';}
	.st3{font-size:283.9989px;}
	.st4{fill:none;stroke:#000000;stroke-miterlimit:10;}
	.st5{fill:url(#SVGID_3_);}
	.st6{fill:#FFFFFF;}
	.st7{fill:url(#SVGID_4_);}
	.st8{fill:url(#SVGID_5_);}
	.st9{fill:url(#SVGID_6_);}
	.st10{fill:url(#SVGID_7_);}
	.st11{fill:url(#SVGID_8_);}
	.st12{fill:url(#SVGID_9_);}
	.st13{fill:url(#SVGID_10_);}
	.st14{fill:url(#SVGID_11_);}
</style>
<linearGradient id="SVGID_1_" gradientUnits="userSpaceOnUse" x1="483.8234" y1="458.4167" x2="675.8234" y2="24.4167">
	<stop  offset="0" style="stop-color:#F12711"/>
	<stop  offset="0.2153" style="stop-color:#F25113"/>
	<stop  offset="0.455" style="stop-color:#F37A16"/>
	<stop  offset="0.6741" style="stop-color:#F49718"/>
	<stop  offset="0.863" style="stop-color:#F5A919"/>
	<stop  offset="1" style="stop-color:#F5AF19"/>
</linearGradient>
<path class="st0" d="M571.9,187.4c-11.1,0-22.8,2.4-34.6,7.8c-14.4,6.6-26.1,18.2-32.6,32.6c-7.7,17-9.4,33.8-6.4,49
	c2.7,13.7,9,26,18,35.9l0.1,0.1c1.6,1.8,3.3,3.5,5.1,5.1l0.1,0.1c0,0,0,0,0,0l45.2,45.2c2.8,2.8,7.4,2.8,10.2,0l45.6-45.6
	c1.6-1.5,3.2-3,4.6-4.6c1.4-1.5,2.7-3.1,4-4.7c4.6-5.9,0.4-14.4-7-14.4h-14.6c-2.3,0-4.5,0.9-6.2,2.5c-8.3,7.6-19.3,12.3-31.4,12.3
	c-8,0-16.4-2-24.8-6.5c-6.3-3.4-11.5-8.5-14.9-14.8c-7.7-14.3-8.2-28.6-4-40.6c4.7-13.1,15-23.4,28.1-28.1
	c4.9-1.7,10.1-2.7,15.6-2.7c5.5,0,10.7,0.9,15.6,2.7c12,4.3,21.8,13.4,26.9,25.1h-1.8l-62.3,0c-7.9,0-14.7,6.2-14.9,14.1
	c-0.1,8,6.3,14.6,14.3,14.6h87c1.3,0,2.6-0.3,3.7-0.7c3.7-1.5,6.4-5.2,6.4-9.4C646.9,221,613.3,187.4,571.9,187.4z"/>
<g>
	<linearGradient id="SVGID_2_" gradientUnits="userSpaceOnUse" x1="337.2479" y1="124.9585" x2="409.2443" y2="195.455">
		<stop  offset="0" style="stop-color:#F12711"/>
		<stop  offset="0.2153" style="stop-color:#F25113"/>
		<stop  offset="0.455" style="stop-color:#F37A16"/>
		<stop  offset="0.6741" style="stop-color:#F49718"/>
		<stop  offset="0.863" style="stop-color:#F5A919"/>
		<stop  offset="1" style="stop-color:#F5AF19"/>
	</linearGradient>
	<path class="st1" d="M362.9,125.8c3.3,0,6.5,0.6,9.5,1.9c3,1.3,5.6,3,7.8,5.2c2.2,2.2,3.9,4.8,5.2,7.8c1.3,3,1.9,6.1,1.9,9.5v23.3
		h-4.9v-8.7c-2.2,3-4.9,5.3-8.3,7.1c-3.4,1.7-7.1,2.6-11.1,2.6c-3.3,0-6.5-0.6-9.4-1.9c-2.9-1.3-5.5-3-7.7-5.2
		c-2.2-2.2-3.9-4.8-5.2-7.7c-1.3-2.9-1.9-6.1-1.9-9.4s0.6-6.5,1.9-9.5c1.3-3,3-5.6,5.2-7.8c2.2-2.2,4.8-3.9,7.7-5.2
		C356.4,126.5,359.6,125.8,362.9,125.8z M362.9,130.8c-2.7,0-5.2,0.5-7.5,1.5c-2.4,1-4.4,2.4-6.2,4.1c-1.8,1.7-3.2,3.8-4.2,6.2
		c-1,2.4-1.5,4.9-1.5,7.6c0,2.7,0.5,5.2,1.5,7.5c1,2.4,2.4,4.4,4.2,6.2c1.8,1.8,3.8,3.2,6.2,4.2c2.4,1,4.9,1.5,7.5,1.5
		c2.7,0,5.2-0.5,7.6-1.5c2.4-1,4.4-2.4,6.2-4.2c1.7-1.8,3.1-3.8,4.1-6.2c1-2.4,1.5-4.9,1.5-7.5c0-2.7-0.5-5.2-1.5-7.6
		c-1-2.4-2.4-4.4-4.1-6.2c-1.7-1.7-3.8-3.1-6.2-4.1C368.1,131.3,365.6,130.8,362.9,130.8z"/>
	<path d="M419.6,126c3.3,0,6.5,0.6,9.5,1.9c3,1.3,5.6,3,7.8,5.2c2.2,2.2,3.9,4.8,5.2,7.8c1.3,3,1.9,6.1,1.9,9.5s-0.6,6.5-1.9,9.4
		c-1.3,2.9-3,5.5-5.2,7.7c-2.2,2.2-4.8,3.9-7.8,5.2c-3,1.3-6.1,1.9-9.5,1.9s-6.5-0.6-9.4-1.9c-2.9-1.3-5.5-3-7.7-5.2
		c-2.2-2.2-3.9-4.8-5.2-7.7c-1.3-2.9-1.9-6.1-1.9-9.4v-46.5h4.8v31.9c2.2-3,5-5.3,8.4-7.1C411.9,126.9,415.6,126,419.6,126z
		 M419.6,130.9c-2.7,0-5.2,0.5-7.5,1.5c-2.4,1-4.4,2.4-6.2,4.1c-1.8,1.7-3.2,3.8-4.2,6.2c-1,2.4-1.5,4.9-1.5,7.6
		c0,2.7,0.5,5.2,1.5,7.5c1,2.4,2.4,4.4,4.2,6.2c1.8,1.8,3.8,3.2,6.2,4.2c2.4,1,4.9,1.5,7.5,1.5c2.7,0,5.2-0.5,7.6-1.5
		c2.4-1,4.4-2.4,6.2-4.2c1.7-1.8,3.1-3.8,4.1-6.2c1-2.4,1.5-4.9,1.5-7.5c0-2.7-0.5-5.2-1.5-7.6c-1-2.4-2.4-4.4-4.1-6.2
		c-1.7-1.7-3.8-3.1-6.2-4.1C424.8,131.5,422.2,130.9,419.6,130.9z"/>
	<path d="M474.8,174.8c-3.3,0-6.5-0.6-9.5-1.9c-3-1.3-5.6-3-7.8-5.2c-2.2-2.2-3.9-4.8-5.2-7.7c-1.3-2.9-1.9-6.1-1.9-9.4
		s0.6-6.5,1.9-9.5c1.3-3,3-5.6,5.2-7.8c2.2-2.2,4.8-3.9,7.8-5.2c3-1.3,6.1-1.9,9.5-1.9s6.5,0.6,9.4,1.9c2.9,1.3,5.5,3,7.7,5.2
		c2.2,2.2,3.9,4.8,5.2,7.8c1.3,3,1.9,6.1,1.9,9.5c0,0.4,0,0.8,0,1.2s0,0.8-0.1,1.2h-1.1h-42.4c0.3,2.4,1,4.7,2.1,6.7
		c1.1,2,2.5,3.8,4.2,5.4c1.7,1.6,3.7,2.8,5.9,3.6c2.2,0.9,4.6,1.3,7.1,1.3c1.8,0,3.5-0.3,5.1-1c1.6-0.7,3-1.6,4.3-2.9l3.4,3.4
		c-1.6,1.6-3.5,2.9-5.7,3.9C479.7,174.3,477.4,174.8,474.8,174.8z M494.1,148.1c-0.3-2.4-1-4.7-2.1-6.7s-2.5-3.8-4.2-5.4
		c-1.7-1.5-3.7-2.8-5.9-3.6c-2.2-0.9-4.5-1.3-7-1.3c-2.5,0-4.8,0.4-7.1,1.3c-2.2,0.9-4.2,2.1-5.9,3.6c-1.7,1.6-3.1,3.3-4.2,5.4
		s-1.8,4.3-2.1,6.7H494.1z"/>
	<path d="M530.4,174.8c-3.3,0-6.5-0.6-9.5-1.9c-3-1.3-5.6-3-7.8-5.2c-2.2-2.2-3.9-4.8-5.2-7.7c-1.3-2.9-1.9-6.1-1.9-9.4
		s0.6-6.5,1.9-9.5c1.3-3,3-5.6,5.2-7.8c2.2-2.2,4.8-3.9,7.8-5.2c3-1.3,6.1-1.9,9.5-1.9s6.5,0.6,9.4,1.9c2.9,1.3,5.5,3,7.7,5.2
		c2.2,2.2,3.9,4.8,5.2,7.8c1.3,3,1.9,6.1,1.9,9.5c0,0.4,0,0.8,0,1.2s0,0.8-0.1,1.2h-1.1H511c0.3,2.4,1,4.7,2.1,6.7
		c1.1,2,2.5,3.8,4.2,5.4c1.7,1.6,3.7,2.8,5.9,3.6c2.2,0.9,4.6,1.3,7.1,1.3c1.8,0,3.5-0.3,5.1-1c1.6-0.7,3-1.6,4.3-2.9l3.4,3.4
		c-1.6,1.6-3.5,2.9-5.7,3.9C535.3,174.3,532.9,174.8,530.4,174.8z M549.6,148.1c-0.3-2.4-1-4.7-2.1-6.7s-2.5-3.8-4.2-5.4
		c-1.7-1.5-3.7-2.8-5.9-3.6c-2.2-0.9-4.5-1.3-7-1.3c-2.5,0-4.8,0.4-7.1,1.3c-2.2,0.9-4.2,2.1-5.9,3.6c-1.7,1.6-3.1,3.3-4.2,5.4
		s-1.8,4.3-2.1,6.7H549.6z"/>
	<path d="M562.4,103.8h4.8v58.6c0,2,0.7,3.8,2.1,5.2c1.4,1.4,3.2,2.1,5.2,2.1v4.8c-1.7,0-3.3-0.3-4.7-0.9c-1.5-0.6-2.8-1.5-3.9-2.6
		c-1.1-1.1-2-2.4-2.6-3.9s-1-3.1-1-4.7V103.8z"/>
</g>
<text transform="matrix(1 0 0 1 674.9531 362.4385)" class="st2 st3">ll</text>
<line class="st4" x1="1218.8" y1="336.7" x2="1218.7" y2="336.7"/>
<line class="st4" x1="1218.8" y1="336.7" x2="1218.7" y2="336.7"/>
<line class="st4" x1="1229.3" y1="354.7" x2="1229.2" y2="354.7"/>
<line class="st4" x1="1229.3" y1="354.7" x2="1229.2" y2="354.7"/>
<path d="M31.9,335.1c-0.6-0.6-1-1.5-1-2.5c0-2,1.6-3.5,3.5-3.5h17.3c1.3,2.4,2.8,4.8,4.3,7.1H34.4C33.4,336.1,32.5,335.7,31.9,335.1
	z"/>
<path d="M26.1,348L26.1,348c0-1.5,1.2-2.6,2.6-2.6h34.7c1.7,1.8,3.5,3.6,5.4,5.3H28.8C27.3,350.6,26.1,349.4,26.1,348z"/>
<path d="M81.5,359.6c4.1,2.4,8.5,4.4,13.1,6H22c-0.8,0-1.6-0.3-2.1-0.9c-0.5-0.5-0.9-1.3-0.9-2.1c0-1.7,1.3-3,3-3H81.5z"/>
<linearGradient id="SVGID_3_" gradientUnits="userSpaceOnUse" x1="59.5275" y1="389.2919" x2="220.0194" y2="99.8064">
	<stop  offset="0" style="stop-color:#F12711"/>
	<stop  offset="4.169719e-02" style="stop-color:#F13412"/>
	<stop  offset="0.2283" style="stop-color:#F36915"/>
	<stop  offset="0.3902" style="stop-color:#F48F17"/>
	<stop  offset="0.5195" style="stop-color:#F5A618"/>
	<stop  offset="0.6" style="stop-color:#F5AF19"/>
	<stop  offset="0.9872" style="stop-color:#F5AF19;stop-opacity:0"/>
</linearGradient>
<path class="st5" d="M278.5,123c-4.8-0.8-9.8-1.2-14.8-1.2c-35.5,0-66.3,20-81.9,49.3c-27.4,0.9-50.6,18.5-59.9,42.9
	c-0.6,0-1.1,0-1.7,0c-43.1,0-78,34.9-78,78c0,13.4,3.4,26.1,9.4,37.1h26.7c-8.8-9.9-14.1-22.9-14.1-37.1c0-30.9,25.1-56,56-56
	c6.4,0,12.6,1.1,18.4,3.1c0-0.5,0-1,0-1.5c0-25.2,20.4-45.5,45.5-45.5c5.3,0,10.3,0.9,15,2.5c8.5-27.5,34.2-47.6,64.5-47.6
	c4.1,0,8.2,0.4,12.1,1.1c0-1,0-1.9,0-2.9C275.7,137.5,276.6,130.1,278.5,123z"/>
<path d="M730.7,20.2l-38.9,3l10.7,15.7C657.9,58.2,589.6,59.1,584,59.1H361.7c-11.8,0-22.9,2.3-33.4,6.7
	c-10.5,4.5-19.7,10.6-27.5,18.5c-7.8,7.8-14,16.9-18.5,27.3c-1.6,3.7-2.9,7.5-4,11.5c-1.9,7-2.8,14.4-2.8,22.1c0,1,0,1.9,0,2.9
	c0.3,10.7,2.6,20.9,6.7,30.5c4.5,10.5,10.6,19.6,18.5,27.3c7.8,7.7,17,13.8,27.5,18.3c0.7,0.3,1.3,0.5,2,0.8c7.8,3.1,16,5,24.5,5.7
	c2.3,0.2,4.6,0.3,6.9,0.3h26c6.7,0,13.1,1.3,19.1,3.8c6,2.5,11.2,6,15.5,10.5c4.3,4.5,7.8,9.7,10.5,15.7c2.7,6,4,12.4,4,19.1
	c0,6.7-1.3,13.1-4,19.1c-2.7,6-6.2,11.3-10.5,15.8c-4.3,4.5-9.5,8-15.5,10.5c-6,2.5-12.4,3.8-19.1,3.8h-199h-26.6H78.3H51.6
	c1.3,2.4,2.8,4.8,4.3,7.1h21.2c2.2,0,4.3,1.5,4.7,3.7c0.6,3-1.7,5.6-4.5,5.6H63.5c1.7,1.8,3.5,3.6,5.4,5.3H95c2.2,0,4.1,1.5,4.6,3.6
	c0.6,2.9-1.6,5.4-4.4,5.4H81.5c4.1,2.4,8.5,4.4,13.1,6h51.3h241.9c11.8,0,22.9-2.2,33.4-6.7c10.5-4.5,19.6-10.6,27.3-18.3
	c7.7-7.7,13.8-16.8,18.3-27.3c4.5-10.5,6.7-21.6,6.7-33.4c0-11.8-2.3-22.9-6.7-33.4c-4.5-10.5-10.6-19.7-18.3-27.5
	c-7.7-7.8-16.8-14-27.3-18.5c-10.5-4.5-21.6-6.7-33.4-6.7h-26c-2.7,0-5.3-0.2-7.9-0.6c-3.8-0.6-7.6-1.7-11.2-3.2
	c-6-2.5-11.3-6-15.7-10.5c-4.5-4.5-8-9.6-10.5-15.5c-2.5-5.9-3.8-12.2-3.8-18.9c0-3,0.3-6,0.8-8.8c0.6-3.5,1.6-6.9,3-10.3
	c2.5-6,6-11.3,10.5-15.8c4.5-4.5,9.7-8,15.7-10.5c6-2.5,12.4-3.8,19.1-3.8h224v0c95.5-1,132.5-21.8,138.4-25.6l11.7,17.1l16.8-35.2
	l16.8-35.2L730.7,20.2z"/>
<g>
	<path d="M301,259.2c-0.1,31.9-26.6,56.9-58,56.2c-30.6-0.6-55.5-25.4-55.6-56.4c-0.1-29.2,24-56.5,57.5-56
		C282.7,203.6,300.9,233.6,301,259.2z M291.4,282.9c2-3.9,3.5-7.7,4.3-11.8c0.3-1.5,0.3-3.1,0-4.5c-0.7-4.5-3.2-6.2-7.7-5.6
		c-1.9,0.3-3.9,0.5-5.8,0.5c-4.6-0.1-8.5-1.7-10.8-5.9c-0.4-0.8-0.9-1.1-1.7-1.2c-2.8-0.6-5.5-1.5-7.7-3.4c-2.3-1.9-3.1-4.7-2-7.4
		c0.6-1.5,1.6-2.9,2.5-4.2c3-3.9,3.4-8.1,1-12.4c-0.8-1.4-1.9-2.6-2.8-4c-0.4-0.6-0.8-1.3-0.8-2c-0.1-3.1,0-6.2,0-9.3
		c0-2.6,0-2.6-2.5-3.2c-1.6-0.4-3.2-0.7-4.7-1c-0.1,2.8-0.1,5.4-0.4,7.9c-0.5,3.8-2.1,6.9-6.4,7.6c-1,0.2-1.3,0.9-1.4,1.8
		c-0.1,1.1-0.1,2.2-0.1,3.2c-0.1,5.3-1.8,9.8-6.2,13c-1.3,0.9-3,1.6-4.6,1.7c-3.6,0.3-5.8-2-7.5-4.8c-0.3-0.4-0.3-1.1-0.3-1.6
		c-0.1-1.7,0-3.4-0.3-5.1c-0.4-2.5-1.8-3.3-4.3-3.3c-2,0-4.1-0.1-6-0.6c-3.3-0.8-5.9-2.7-8.2-5.3c-3.4,3.3-6.2,6.9-8.6,11.1
		c0.8-0.1,1.4-0.2,2.1-0.2c4.8-0.3,9.2,0.7,12.6,4.3c2.2,2.4,3.2,5.3,3.9,8.5c1.1,5,3.1,9.5,6.7,13.3c4.8,5.1,7.2,11.3,6.9,18.3
		c-0.2,3.4-0.5,6.9-1.2,10.3c-1.3,6.8-2.6,13.6-8.3,18.9c3.5,1.3,6.8,2.4,10.2,3.7c0-1,0-1.7,0-2.3c-0.2-4.2-0.1-8.5,0.9-12.6
		c1-4.3,2.6-8.2,6.4-10.8c5.6-3.9,11.8-5.7,18.6-5.3c1.9,0.1,3.3-0.7,4.6-1.8c0.7-0.5,0.7-1.1,0.2-1.9c-1.1-1.6-1-3.2,0.4-4.5
		c0.9-0.8,1.9-1.6,3-2.1c3.3-1.5,6.8-1.8,10.3-1.1c7.2,1.3,11.7,5.9,14.7,12.3C290.6,280.9,290.9,281.8,291.4,282.9z M191.4,257
		c0,1.2,0,2.4,0,3.6c0.1,9.3,2.9,17.8,7.9,25.5c4.1,6.4,9.2,12,15.4,16.5c2.1,1.6,3.8,1.3,5.4-0.8c1-1.3,1.8-2.8,2.5-4.3
		c2.3-5.6,3.2-11.6,3.9-17.6c0.9-7.5-1.3-13.9-6.5-19.3c-2.1-2.2-3.7-4.6-4.7-7.3c-1-2.7-1.8-5.5-2.5-8.3c-1.1-4.3-3.5-7.5-8.1-8.1
		c-2.4-0.3-5,0.1-7.5,0.2c-0.9,0-1.3,0.6-1.6,1.3C193.1,244.5,191.6,250.6,191.4,257z M235.3,310.7c11.5,1.8,23.5-0.3,33.6-5.7
		c7.5-4,13.8-9.4,18.9-16.3c0.4-0.5,0.7-1.3,0.6-1.9c-0.8-3.4-2.1-6.6-4.3-9.4c-3.4-4.4-7.8-6.5-13.4-6.1c-2,0.2-3.9,0.6-5.5,1.9
		c1.5,4.1,0.8,6.2-3.1,8.4c-1.2,0.7-2.7,1.4-4,1.3c-5.5-0.4-10.5,0.7-15.4,3.2c-3.3,1.8-5.3,4.5-6.4,8
		C234.7,299.6,234.8,305.1,235.3,310.7z M263.8,210.7c0,2.9-0.1,5.7,0,8.5c0,0.9,0.4,1.8,0.9,2.5c2.2,2.9,3.7,5.9,4,9.5
		c0.4,4.3-1.2,8-3.9,11.3c-2.5,3.1-2,5.1,1.6,6.8c0.4,0.2,0.8,0.4,1.3,0.5c2,0.5,4,1,6.2,1.6c0.4,2.9,2.2,5.1,5.2,5.7
		c2,0.4,4.2,0.3,6.3,0.3c1.6,0,3.2-0.5,4.7-0.4c2,0.2,4,1,5.9,1.5C295.8,236.7,284.8,219.1,263.8,210.7z M248.4,207
		c-14.1,0.5-27.4,2.9-38.6,12.4c3,3.5,6.8,5.1,11.3,4.7c3.6-0.3,6.6,1.4,7.6,4.9c0.6,1.9,0.9,4,0.8,5.9c-0.1,1.9,0.9,2.7,2.1,3.6
		c1.3,0.9,2.6,0.6,3.8-0.2c2.4-1.7,4.1-3.9,4.6-6.7c0.4-2.3,0.4-4.6,0.6-7c0.2-2.8,1.7-4.8,4.3-5.2c2-0.3,2.8-1.6,3.3-3.3
		C249,213.1,248.9,210.2,248.4,207z"/>
	<path class="st6" d="M291.4,282.9c-0.5-1.1-0.8-2-1.2-2.9c-3-6.4-7.5-10.9-14.7-12.3c-3.5-0.7-7-0.4-10.3,1.1
		c-1.1,0.5-2.1,1.2-3,2.1c-1.4,1.3-1.5,2.9-0.4,4.5c0.5,0.8,0.5,1.3-0.2,1.9c-1.3,1.1-2.7,1.9-4.6,1.8c-6.8-0.4-13,1.4-18.6,5.3
		c-3.7,2.6-5.4,6.5-6.4,10.8c-1,4.1-1.1,8.4-0.9,12.6c0,0.7,0,1.3,0,2.3c-3.4-1.2-6.7-2.4-10.2-3.7c5.6-5.3,7-12.1,8.3-18.9
		c0.6-3.4,1-6.9,1.2-10.3c0.4-7.1-2.1-13.2-6.9-18.3c-3.6-3.8-5.6-8.3-6.7-13.3c-0.7-3.1-1.7-6.1-3.9-8.5c-3.4-3.6-7.8-4.6-12.6-4.3
		c-0.6,0-1.2,0.1-2.1,0.2c2.4-4.2,5.3-7.8,8.6-11.1c2.3,2.6,4.9,4.5,8.2,5.3c1.9,0.5,4,0.6,6,0.6c2.5,0,3.9,0.8,4.3,3.3
		c0.3,1.7,0.2,3.4,0.3,5.1c0,0.6,0.1,1.2,0.3,1.6c1.7,2.8,4,5.1,7.5,4.8c1.6-0.1,3.3-0.8,4.6-1.7c4.4-3.1,6.1-7.7,6.2-13
		c0-1.1,0-2.2,0.1-3.2c0.1-0.9,0.4-1.6,1.4-1.8c4.3-0.7,5.9-3.8,6.4-7.6c0.3-2.5,0.3-5.1,0.4-7.9c1.5,0.3,3.1,0.6,4.7,1
		c2.5,0.6,2.5,0.6,2.5,3.2c0,3.1,0,6.2,0,9.3c0,0.7,0.4,1.4,0.8,2c0.9,1.4,2,2.6,2.8,4c2.3,4.3,1.9,8.4-1,12.4
		c-1,1.3-1.9,2.7-2.5,4.2c-1.1,2.7-0.3,5.5,2,7.4c2.2,1.9,4.9,2.8,7.7,3.4c0.8,0.2,1.3,0.5,1.7,1.2c2.4,4.2,6.2,5.8,10.8,5.9
		c1.9,0,3.9-0.2,5.8-0.5c4.5-0.6,7,1.1,7.7,5.6c0.2,1.5,0.2,3.1,0,4.5C294.9,275.2,293.3,279,291.4,282.9z M236.6,254.7
		c1.6,1.3,3.4,1.4,5.2,0.3c0.2-0.1,0.7-0.1,1,0c1.6,0.9,3.1,0.9,4.7,0c0.2-0.1,0.7-0.1,1,0c1.2,0.6,2.5,1.1,3.8,0.3
		c1-0.6,1.8-0.6,2.8,0.1c1.2,0.8,3.5,0.1,4.3-1c0.9-1.3,0.8-3.3-0.2-4.3c-1.2-1.2-2.3-2.5-3.5-3.7c-0.4-0.4-1.1-0.8-1.7-0.8
		c-6-0.1-12-0.1-18,0c-0.6,0-1.3,0.3-1.7,0.8c-1.2,1.3-2.3,2.7-3.5,4.1c-1.2,1.4-0.5,4,1.1,4.8C233.7,256.2,235.1,255.6,236.6,254.7
		z M253.2,265.1c2-1.8,2.6-4.2,1.4-5.6c-1.1-1.3-3.4-1.8-4.5-0.7c-0.9,0.8-1.9,1.9-1.5,3.3c0.4,1.1,1.1,2.1,1.6,3.1
		c-0.8,0-1.8,0-2.9,0c0-1.2,0-2.3,0-3.5c-1.2,0-2.2,0-3.2,0c-0.1-0.8-0.1-1.4-0.2-2c-2.3,0-4.5,0-6.8,0c0,1.9,0,3.7,0,5.6
		c-0.9,0-1.6,0.1-2.4,0.1c0,1.7,0,3.3,0,4.9c0,0.3,0.5,0.5,0.8,0.8c0.1-0.1,0.2-0.2,0.4-0.3c0-1.5,0-3,0-4.6c6.1,0,12.1,0,18.2,0
		c0,1.4,0,2.7,0,4c0,0.2,0.3,0.5,0.4,0.7c0.2-0.2,0.5-0.4,0.5-0.6c0-1.7,0-3.3,0-5C254.5,265.2,253.9,265.1,253.2,265.1z
		 M258.7,256.6c-0.1-0.1-0.2-0.1-0.3-0.2c-0.3,0.4-0.7,0.8-0.8,1.2c-0.1,4.1,0,8.2,0,12.4c0,0.9,0.4,1,1.1,0.7
		C258.7,266,258.7,261.3,258.7,256.6z M231.9,256.4c-0.1,0.1-0.2,0.1-0.4,0.2c0,4.7,0,9.4,0,14.2c0.1,0.1,0.3,0.1,0.4,0.2
		c0.2-0.4,0.6-0.7,0.6-1.1c0-4,0.1-8.1,0-12.1C232.6,257.3,232.2,256.9,231.9,256.4z"/>
	<path class="st6" d="M191.4,257c0.2-6.4,1.7-12.5,4.2-18.4c0.3-0.8,0.8-1.3,1.6-1.3c2.5-0.1,5.1-0.6,7.5-0.2c4.6,0.6,7,3.8,8.1,8.1
		c0.7,2.8,1.5,5.6,2.5,8.3c1,2.8,2.6,5.2,4.7,7.3c5.1,5.4,7.3,11.8,6.5,19.3c-0.7,6-1.6,12-3.9,17.6c-0.6,1.5-1.5,3-2.5,4.3
		c-1.6,2.1-3.2,2.3-5.4,0.8c-6.1-4.5-11.2-10.1-15.4-16.5c-5-7.8-7.8-16.2-7.9-25.5C191.4,259.4,191.4,258.2,191.4,257z
		 M216.7,275.3c0.5,1,1.4,1,2.1,0.5c0.7-0.5,0.7-1.2,0.1-1.9c-0.3-0.4-0.6-0.8-0.7-1.3c-0.3-0.8-0.9-1-1.7-1c-2.7,0.1-5.3,0-8,0
		c-1.3,0-3.1,2.1-2.8,3.3c0.1,0.3,0.4,0.9,0.6,0.9c0.7,0,1.4-0.3,2.3-0.5c0.8,0.9,1.3,0.9,2.5-0.1c0.7,0.8,1.5,1,2.4,0.3
		c0.1-0.1,0.4-0.1,0.5,0C215.1,276.4,216,276,216.7,275.3z M206.3,276.8c0,2.1,0,4,0,5.9c0,0.4,0.5,1,0.7,1c2.1,0.1,4.3,0,6.6,0
		c0-2.1,0-4.1,0-6.1c1.2,0,2.3,0,3.5,0c0,2.1,0,4.1,0,6.1c1.3,0,1.5,0,1.5-1c0.1-2,0-3.9,0-5.9C214.6,276.8,210.5,276.8,206.3,276.8
		z M207.8,253.9c1.2,1,2.3,1,2.6-0.1c0.2-0.9-1.5-3.2-2.4-3.2c-2.7,0-5.4,0-8.1,0c-0.8,0-2.6,2.7-2.1,3.3c0.3,0.4,1.1,0.6,1.7,0.7
		c0.2,0,0.5-0.4,0.8-0.6c0.8,1,1.4,1,2.5,0c0.8,1.2,1.8,0.9,2.6,0C206.3,254.9,206.8,254.9,207.8,253.9z M205.2,256.3
		c1.1,0,2.1,0,3.2,0c0,1.9,0,3.7,0,5.5c0.1,0.1,0.3,0.2,0.4,0.2c0.3-0.3,0.9-0.7,0.9-1c0.1-1.9,0-3.7,0-5.6c-3.9,0-7.7,0-11.5,0
		c0,1.9,0,3.7,0,5.6c0,0.3,0.4,0.8,0.6,0.8c2.1,0.1,4.2,0,6.4,0C205.2,260,205.2,258.2,205.2,256.3z M207.2,270.9c3.6,0,7,0,10.7,0
		c-0.4-0.3-0.6-0.5-0.7-0.5c-3.1,0-6.2,0-9.3,0C207.7,270.3,207.5,270.6,207.2,270.9z M208.7,249.9c0-0.1,0-0.2,0-0.3
		c-3.1,0-6.2,0-9.3,0c0,0.1,0,0.2,0,0.3C202.5,249.9,205.6,249.9,208.7,249.9z"/>
	<path class="st6" d="M235.3,310.7c-0.5-5.6-0.6-11.1,1.1-16.5c1.1-3.5,3.1-6.2,6.4-8c4.8-2.6,9.9-3.6,15.4-3.2
		c1.3,0.1,2.8-0.6,4-1.3c3.9-2.1,4.6-4.2,3.1-8.4c1.6-1.3,3.5-1.8,5.5-1.9c5.6-0.5,10,1.7,13.4,6.1c2.2,2.8,3.5,6,4.3,9.4
		c0.1,0.6-0.2,1.4-0.6,1.9c-5.1,6.8-11.4,12.2-18.9,16.3C258.8,310.4,246.8,312.5,235.3,310.7z M254.1,297c1.3,1,2.2,1,2.5,0
		c0.3-0.9-1.4-3.1-2.3-3.2c-2.5,0-4.9,0-7.4,0c-1,0-2.7,1.9-2.7,2.9c0,0.8,1,1.3,1.7,0.9c0.3-0.1,0.5-0.4,0.8-0.6
		c0.9,1.3,1.7,0.9,2.5,0c0.8,1.1,1.6,1.1,2.4,0.1C252.5,297.9,253.3,298.2,254.1,297z M244.8,298.4c0,1.8-0.1,3.5,0,5.2
		c0,0.4,0.5,1.2,0.8,1.2c2,0.1,3.9,0.1,6,0.1c0-2,0-3.8,0-5.6c1.1,0,2.1,0,3.2,0c0,1.9,0,3.7,0,5.5c0.1,0.1,0.2,0.1,0.4,0.2
		c0.3-0.3,0.9-0.7,0.9-1c0.1-1.9,0-3.7,0-5.6C252.3,298.4,248.6,298.4,244.8,298.4z M275.3,287.1c1,1,2.1,0.9,2.4-0.2
		c0.2-0.7-1.5-3.1-2.3-3.1c-2.7,0-5.4,0-8.1,0c-0.5,0.8-1,1.6-1.4,2.5c-0.1,0.3,0,1,0.2,1.2c0.3,0.2,0.9,0.3,1.3,0.2
		c0.3,0,0.5-0.4,0.7-0.6c0.8,1.3,1.6,0.9,2.4,0c0.8,1.3,1.7,0.8,2.4,0C273.9,288.3,274.6,287.9,275.3,287.1z M277.1,288.5
		c-3.5,0-7,0-10.7,0c0,1.8,0,3.6,0,5.3c0,0.3,0.4,0.8,0.7,0.8c1.9,0.1,3.8,0,5.8,0c0-1.9,0-3.6,0-5.3c1,0,1.9,0,2.9,0
		c0,0.9,0,1.8,0,2.6c0,0.9,0,1.8,0,2.7C277.3,294.4,277.6,292.4,277.1,288.5z M267.3,283.3c2.9,0.2,5.9,0.2,9,0.2
		C275.5,282.6,268.5,282.5,267.3,283.3z M255,293.2c-1.7-0.8-8.1-0.8-9.2,0C248.9,293.2,251.9,293.2,255,293.2z"/>
	<path class="st6" d="M263.8,210.7c21,8.5,32,26,32.3,47.9c-1.9-0.5-3.9-1.2-5.9-1.5c-1.5-0.2-3.1,0.3-4.7,0.4
		c-2.1,0-4.3,0.1-6.3-0.3c-3-0.7-4.8-2.8-5.2-5.7c-2.2-0.5-4.2-1-6.2-1.6c-0.4-0.1-0.8-0.3-1.3-0.5c-3.6-1.7-4.2-3.7-1.6-6.8
		c2.7-3.3,4.3-6.9,3.9-11.3c-0.3-3.6-1.9-6.7-4-9.5c-0.5-0.7-0.9-1.7-0.9-2.5C263.7,216.4,263.8,213.6,263.8,210.7z M282,234.4
		c0.5,0.1,1,0.5,1.5,0.4c0.3,0,0.7-0.6,0.8-0.9c0.2-0.9-1.4-2.8-2.3-2.8c-2.2,0-4.4,0-6.6,0c-1.1,0-2.8,1.5-2.8,2.6
		c0,0.3,0.3,0.8,0.6,1c0.3,0.2,0.7,0.1,1.1,0c0.3-0.1,0.5-0.4,0.7-0.6c0.8,1.2,1.6,0.9,2.4,0.1c0.9,1.8,2.5-0.5,3.5,0.7
		C280.9,235,281.6,234.6,282,234.4z M273.1,235.5c0,1.8,0,3.6,0,5.3c0,0.3,0.5,0.8,0.8,0.8c1.8,0.1,3.6,0,5.5,0c0-1.9,0-3.6,0-5.3
		c1.1,0,2.1,0,3.1,0c0,0.9,0,1.8,0,2.6c0,0.9,0,1.7,0,2.7c1.2-0.4,1.5-2.7,1-6.2C280.2,235.5,276.8,235.5,273.1,235.5z M274,230.2
		c0,0.1,0,0.2,0,0.3c2.9,0,5.9,0,8.8,0c0-0.1,0-0.2,0-0.3C279.9,230.2,277,230.2,274,230.2z"/>
	<path class="st6" d="M248.4,207c0.5,3.2,0.5,6.1-0.2,9.1c-0.4,1.7-1.3,2.9-3.3,3.3c-2.5,0.4-4,2.4-4.3,5.2c-0.2,2.3-0.2,4.7-0.6,7
		c-0.5,2.9-2.2,5.1-4.6,6.7c-1.2,0.8-2.5,1.1-3.8,0.2c-1.2-0.9-2.2-1.7-2.1-3.6c0.1-2-0.2-4.1-0.8-5.9c-1.1-3.4-4-5.2-7.6-4.9
		c-4.5,0.4-8.3-1.2-11.3-4.7C221,209.9,234.3,207.5,248.4,207z M236.6,215.8c0.6,0.3,1.1,0.6,1.6,0.6c0.3,0,0.7-0.4,0.8-0.7
		c0.3-0.9-1.2-2.9-2.2-2.9c-1.9,0-3.9,0.1-5.8,0c-1.6-0.1-2.5,0.4-3.2,1.8c-0.3,0.6-0.5,0.9,0,1.5c0.5,0.5,1,0.5,1.5,0.1
		c0.2-0.1,0.6-0.2,0.7-0.1c0.9,0.7,1.6,0.3,2.1-0.4c0.8,1.2,1.6,0.9,2.3,0.1C235.5,216.8,235.8,216.7,236.6,215.8z M234.5,223.1
		c0-1.8,0-3.4,0-5.1c1,0,1.8,0,2.7,0c0,1.7,0,3.4,0,5c0.1,0.1,0.2,0.1,0.3,0.2c0.3-0.3,0.9-0.6,0.9-0.9c0.1-1.7,0-3.5,0-5.2
		c-3.6,0-7,0-10.5,0c0,1.6,0,3.2,0,4.8c0,0.7,0.4,1.2,1.3,1.2C230.9,223,232.6,223.1,234.5,223.1z M229.1,211.8c0,0.1,0,0.2,0,0.3
		c2.8,0,5.7,0,8.5,0c0-0.1,0-0.2,0-0.3C234.8,211.8,232,211.8,229.1,211.8z"/>
	<path d="M236.6,254.7c-1.5,1-2.9,1.5-4.7,0.6c-1.6-0.9-2.3-3.4-1.1-4.8c1.1-1.4,2.3-2.8,3.5-4.1c0.4-0.4,1.1-0.8,1.7-0.8
		c6-0.1,12-0.1,18,0c0.6,0,1.3,0.4,1.7,0.8c1.2,1.2,2.3,2.5,3.5,3.7c1,1.1,1.1,3,0.2,4.3c-0.8,1.1-3.1,1.8-4.3,1
		c-1-0.7-1.8-0.7-2.8-0.1c-1.3,0.8-2.6,0.2-3.8-0.3c-0.3-0.1-0.7-0.2-1,0c-1.6,0.9-3.1,0.9-4.7,0c-0.3-0.1-0.7-0.2-1,0
		C240,256.1,238.3,256,236.6,254.7z M242.4,246.8c-0.8,0-1.6,0-2.3,0c-0.3,0-0.6,0.2-0.7,0.4c-0.7,1.3-1.4,2.7-2,4.1
		c-0.6,1.5,0.3,3.2,1.8,3.6c1.2,0.3,2.4-0.8,2.6-2.1C241.9,250.8,242.1,248.9,242.4,246.8z M243.7,246.9c-0.3,1.8-0.6,3.5-0.8,5.3
		c-0.1,1.6,0.9,2.7,2.1,2.8c1.3,0,2.4-1.1,2.3-2.7c-0.1-1.8-0.5-3.5-0.8-5.3C245.6,246.9,244.7,246.9,243.7,246.9z M247.9,246.9
		c0.2,2,0.4,3.9,0.7,5.9c0.2,1.2,1.2,2.1,2.1,2.1c1.2,0,2.2-0.9,2.3-2.2c0-0.6-0.1-1.3-0.4-1.9c-0.3-0.7-0.8-1.4-1.2-2.1
		C250.4,246.5,250.4,246.5,247.9,246.9z M238.3,246.9c-2.7-0.3-2.7-0.3-4.2,1.5c-0.7,0.8-1.3,1.7-2.1,2.4c-0.9,0.9-0.8,2-0.2,2.8
		c0.5,0.6,1.5,1.1,2.2,1.1c1.2,0,1.7-1.1,2-2.2c0.2-1.1,0.6-2.1,1-3.1C237.4,248.6,237.9,247.8,238.3,246.9z M252,246.9
		c0.1,0.3,0.2,0.5,0.3,0.7c0.8,1.8,2.2,3.3,2.1,5.5c0,0.9,0.7,1.9,1.7,1.7c0.8-0.1,1.8-0.6,2.3-1.2c0.6-0.7,0.7-1.7-0.1-2.6
		c-0.9-0.9-1.9-1.7-2.5-2.8C254.9,246.6,253.6,246.7,252,246.9z"/>
	<path d="M253.2,265.1c0.7,0,1.3,0.1,2,0.1c0,1.7,0,3.4,0,5c0,0.2-0.3,0.4-0.5,0.6c-0.1-0.2-0.4-0.5-0.4-0.7c0-1.3,0-2.6,0-4
		c-6.1,0-12.1,0-18.2,0c0,1.6,0,3.1,0,4.6c-0.1,0.1-0.2,0.2-0.4,0.3c-0.3-0.3-0.8-0.5-0.8-0.8c-0.1-1.6,0-3.2,0-4.9
		c0.8,0,1.5-0.1,2.4-0.1c0-1.8,0-3.7,0-5.6c2.4,0,4.5,0,6.8,0c0.1,0.6,0.1,1.2,0.2,2c1,0,2,0,3.2,0c0,1.3,0,2.4,0,3.5
		c1.1,0,2.1,0,2.9,0c-0.5-0.9-1.3-1.9-1.6-3.1c-0.5-1.4,0.6-2.4,1.5-3.3c1.1-1,3.4-0.6,4.5,0.7C255.8,260.9,255.2,263.3,253.2,265.1
		z M251.9,259.4c-1.4,0-2.1,0.8-2,2.2c0,1.5,0.7,2.2,2.1,2.2c1.4,0,2.4-1,2.3-2.4C254.2,260.3,253.1,259.4,251.9,259.4z
		 M240.5,265.1c0-1.2,0-2.3,0-3.5c0.7,0,1.3,0.1,1.7,0c0.3-0.1,0.5-0.6,0.9-1.1c-1.8,0-3.2,0-4.6,0c0,1.6,0,3.1,0,4.6
		C239.2,265.1,239.7,265.1,240.5,265.1z M241.8,265.1c1.5,0,2.9,0,4.3,0c0-0.8,0-1.5,0-2.2c-1.5,0-2.9,0-4.3,0
		C241.8,263.6,241.8,264.3,241.8,265.1z"/>
	<path d="M258.7,256.6c0,4.7,0,9.4,0,14.1c-0.7,0.3-1.1,0.2-1.1-0.7c0-4.1,0-8.2,0-12.4c0-0.4,0.5-0.8,0.8-1.2
		C258.5,256.5,258.6,256.5,258.7,256.6z"/>
	<path d="M231.9,256.4c0.2,0.4,0.7,0.9,0.7,1.3c0.1,4,0,8.1,0,12.1c0,0.4-0.4,0.7-0.6,1.1c-0.1-0.1-0.3-0.1-0.4-0.2
		c0-4.7,0-9.4,0-14.2C231.7,256.5,231.8,256.5,231.9,256.4z"/>
	<path d="M216.7,275.3c-0.8,0.8-1.6,1.2-2.6,0.3c-0.1-0.1-0.4-0.1-0.5,0c-0.9,0.7-1.7,0.5-2.4-0.3c-1.2,1-1.7,1-2.5,0.1
		c-0.9,0.2-1.6,0.4-2.3,0.5c-0.2,0-0.5-0.6-0.6-0.9c-0.2-1.3,1.6-3.3,2.8-3.3c2.7,0,5.3,0,8,0c0.8,0,1.4,0.2,1.7,1
		c0.2,0.4,0.4,0.9,0.7,1.3c0.5,0.7,0.6,1.4-0.1,1.9C218.1,276.2,217.3,276.2,216.7,275.3z"/>
	<path d="M206.3,276.8c4.2,0,8.2,0,12.4,0c0,2,0.1,4,0,5.9c0,1-0.2,1-1.5,1c0-2,0-4,0-6.1c-1.2,0-2.2,0-3.5,0c0,2,0,4,0,6.1
		c-2.3,0-4.5,0-6.6,0c-0.3,0-0.7-0.6-0.7-1C206.3,280.9,206.3,278.9,206.3,276.8z M207.7,280.8c1.7,0,3.2,0,4.8,0c0-1.1,0-2,0-3.1
		c-1.6,0-3.2,0-4.8,0C207.7,278.7,207.7,279.7,207.7,280.8z M212.5,281.8c0-0.1,0-0.2,0-0.2c-1.6,0-3.2,0-4.7,0c0,0.1,0,0.2,0,0.2
		C209.3,281.8,210.9,281.8,212.5,281.8z"/>
	<path d="M207.8,253.9c-1,1-1.5,1-2.4,0c-0.9,0.8-1.8,1.1-2.6,0c-1.1,1-1.7,1-2.5,0c-0.3,0.2-0.6,0.7-0.8,0.6
		c-0.6-0.1-1.3-0.2-1.7-0.7c-0.5-0.6,1.3-3.3,2.1-3.3c2.7,0,5.4,0,8.1,0c0.9,0,2.7,2.3,2.4,3.2C210.1,254.9,209,254.9,207.8,253.9z"
		/>
	<path d="M205.2,256.3c0,1.9,0,3.7,0,5.6c-2.2,0-4.3,0-6.4,0c-0.2,0-0.6-0.5-0.6-0.8c-0.1-1.8,0-3.7,0-5.6c3.9,0,7.6,0,11.5,0
		c0,1.8,0,3.7,0,5.6c0,0.3-0.6,0.7-0.9,1c-0.1-0.1-0.3-0.2-0.4-0.2c0-1.8,0-3.6,0-5.5C207.4,256.3,206.4,256.3,205.2,256.3z
		 M203.8,256.3c-1.6,0-3,0-4.5,0c0,1,0,1.9,0,2.8c1.5,0,3,0,4.5,0C203.8,258.2,203.8,257.3,203.8,256.3z M203.8,260.1
		c0-0.1,0-0.2,0-0.3c-1.5,0-2.9,0-4.4,0c0,0.1,0,0.2,0,0.3C200.9,260.1,202.4,260.1,203.8,260.1z"/>
	<path d="M207.2,270.9c0.3-0.3,0.5-0.6,0.7-0.6c3.1,0,6.2,0,9.3,0c0.1,0,0.3,0.2,0.7,0.5C214.2,270.9,210.8,270.9,207.2,270.9z"/>
	<path d="M208.7,249.9c-3.1,0-6.2,0-9.3,0c0-0.1,0-0.2,0-0.3c3.1,0,6.2,0,9.3,0C208.7,249.7,208.7,249.8,208.7,249.9z"/>
	<path d="M254.1,297c-0.8,1.2-1.6,0.9-2.5,0.1c-0.8,1-1.6,1-2.4-0.1c-0.8,1-1.6,1.3-2.5,0c-0.3,0.2-0.5,0.5-0.8,0.6
		c-0.8,0.4-1.7-0.1-1.7-0.9c-0.1-1,1.7-2.9,2.7-2.9c2.5,0,4.9,0,7.4,0c0.9,0,2.6,2.2,2.3,3.2C256.4,298,255.4,298,254.1,297z"/>
	<path d="M244.8,298.4c3.9,0,7.5,0,11.3,0c0,1.9,0,3.8,0,5.6c0,0.3-0.6,0.7-0.9,1c-0.1-0.1-0.2-0.1-0.4-0.2c0-1.8,0-3.6,0-5.5
		c-1.1,0-2.1,0-3.2,0c0,1.8,0,3.6,0,5.6c-2.1,0-4,0.1-6-0.1c-0.3,0-0.8-0.8-0.8-1.2C244.7,301.9,244.8,300.2,244.8,298.4z
		 M250.3,302.1c0-1,0-1.9,0-2.8c-1.5,0-2.8,0-4.2,0c0,1,0,1.9,0,2.8C247.6,302.1,248.9,302.1,250.3,302.1z"/>
	<path d="M275.3,287.1c-0.7,0.8-1.5,1.2-2.3,0c-0.8,0.8-1.6,1.3-2.4,0c-0.8,0.9-1.6,1.2-2.4,0c-0.3,0.2-0.5,0.6-0.7,0.6
		c-0.4,0.1-1,0-1.3-0.2c-0.2-0.2-0.4-0.8-0.2-1.2c0.4-0.8,0.9-1.6,1.4-2.5c2.7,0,5.4,0,8.1,0c0.8,0,2.5,2.3,2.3,3.1
		C277.4,287.9,276.3,288.1,275.3,287.1z"/>
	<path d="M277.1,288.5c0.6,4,0.2,5.9-1.2,6.1c0-0.9,0-1.8,0-2.7c0-0.8,0-1.7,0-2.6c-1,0-1.9,0-2.9,0c0,1.7,0,3.4,0,5.3
		c-2,0-3.9,0-5.8,0c-0.2,0-0.7-0.5-0.7-0.8c-0.1-1.7,0-3.5,0-5.3C270,288.5,273.5,288.5,277.1,288.5z M267.5,291.9
		c1.5,0,2.8,0,4.2,0c0-0.9,0-1.7,0-2.6c-1.4,0-2.8,0-4.2,0C267.5,290.2,267.5,291,267.5,291.9z M267.6,292.5c0,0.1,0,0.3,0,0.4
		c1.4,0,2.7,0.2,4.1-0.4C270.3,292.5,268.9,292.5,267.6,292.5z"/>
	<path d="M267.3,283.3c1.2-0.8,8.2-0.7,9,0.2C273.1,283.5,270.2,283.6,267.3,283.3z"/>
	<path d="M255,293.2c-3,0-6,0-9.2,0C246.9,292.4,253.3,292.3,255,293.2z"/>
	<path d="M282,234.4c-0.4,0.2-1,0.6-1.1,0.5c-1-1.2-2.6,1.1-3.5-0.7c-0.8,0.9-1.6,1.1-2.4-0.1c-0.3,0.2-0.5,0.5-0.7,0.6
		c-0.3,0.1-0.8,0.1-1.1,0c-0.3-0.2-0.6-0.6-0.6-1c0-1.1,1.7-2.6,2.8-2.6c2.2,0,4.4,0,6.6,0c0.9,0,2.5,1.9,2.3,2.8
		c-0.1,0.4-0.5,0.9-0.8,0.9C283,234.9,282.4,234.6,282,234.4z"/>
	<path d="M273.1,235.5c3.6,0,7,0,10.4,0c0.5,3.5,0.2,5.8-1,6.2c0-0.9,0-1.8,0-2.7c0-0.8,0-1.7,0-2.6c-1,0-2,0-3.1,0
		c0,1.7,0,3.4,0,5.3c-1.9,0-3.7,0-5.5,0c-0.3,0-0.8-0.5-0.8-0.8C273.1,239.1,273.1,237.3,273.1,235.5z M274.3,236.3
		c0,0.9,0,1.7,0,2.6c1.5,0,2.8,0,4.2,0c0-0.9,0-1.7,0-2.6C277.1,236.3,275.8,236.3,274.3,236.3z M278.4,239.9c0-0.1,0-0.2,0-0.2
		c-1.4,0-2.7,0-4.1,0c0,0.1,0,0.2,0,0.2C275.6,239.9,277,239.9,278.4,239.9z"/>
	<path d="M274,230.2c2.9,0,5.9,0,8.8,0c0,0.1,0,0.2,0,0.3c-2.9,0-5.9,0-8.8,0C274,230.3,274,230.3,274,230.2z"/>
	<path d="M236.6,215.8c-0.8,0.9-1,1-2.1,0c-0.8,0.7-1.6,1.1-2.3-0.1c-0.6,0.8-1.2,1.2-2.1,0.4c-0.1-0.1-0.5-0.1-0.7,0.1
		c-0.5,0.4-1,0.5-1.5-0.1c-0.5-0.6-0.3-0.9,0-1.5c0.6-1.5,1.6-2,3.2-1.8c1.9,0.2,3.9,0,5.8,0c1,0,2.6,2,2.2,2.9
		c-0.1,0.3-0.6,0.7-0.8,0.7C237.7,216.4,237.2,216.1,236.6,215.8z"/>
	<path d="M234.5,223.1c-1.9,0-3.6,0-5.2,0c-0.9,0-1.2-0.4-1.3-1.2c0-1.6,0-3.1,0-4.8c3.5,0,6.9,0,10.5,0c0,1.7,0,3.4,0,5.2
		c0,0.3-0.6,0.6-0.9,0.9c-0.1-0.1-0.2-0.1-0.3-0.2c0-1.6,0-3.3,0-5c-0.9,0-1.8,0-2.7,0C234.5,219.6,234.5,221.3,234.5,223.1z
		 M229.1,220.5c1.5,0,2.8,0,4.2,0c0-0.9,0-1.7,0-2.5c-1.4,0-2.8,0-4.2,0C229.1,218.8,229.1,219.6,229.1,220.5z M229.2,221
		c0,0.1,0,0.2,0,0.3c1.3,0,2.7,0,4,0c0-0.1,0-0.2,0-0.3C231.8,221,230.5,221,229.2,221z"/>
	<path d="M229.1,211.8c2.8,0,5.7,0,8.5,0c0,0.1,0,0.2,0,0.3c-2.8,0-5.7,0-8.5,0C229.1,212,229.1,211.9,229.1,211.8z"/>
	<linearGradient id="SVGID_4_" gradientUnits="userSpaceOnUse" x1="237.1268" y1="250.8392" x2="242.3904" y2="250.8392">
		<stop  offset="0" style="stop-color:#F12711"/>
		<stop  offset="0.2153" style="stop-color:#F25113"/>
		<stop  offset="0.455" style="stop-color:#F37A16"/>
		<stop  offset="0.6741" style="stop-color:#F49718"/>
		<stop  offset="0.863" style="stop-color:#F5A919"/>
		<stop  offset="1" style="stop-color:#F5AF19"/>
	</linearGradient>
	<path class="st7" d="M242.4,246.8c-0.2,2.1-0.4,4-0.7,5.9c-0.2,1.4-1.5,2.4-2.6,2.1c-1.4-0.3-2.4-2.1-1.8-3.6
		c0.6-1.4,1.3-2.7,2-4.1c0.1-0.2,0.5-0.4,0.7-0.4C240.8,246.8,241.6,246.8,242.4,246.8z"/>
	<linearGradient id="SVGID_5_" gradientUnits="userSpaceOnUse" x1="242.9009" y1="250.8747" x2="247.3963" y2="250.8747">
		<stop  offset="0" style="stop-color:#F12711"/>
		<stop  offset="0.2153" style="stop-color:#F25113"/>
		<stop  offset="0.455" style="stop-color:#F37A16"/>
		<stop  offset="0.6741" style="stop-color:#F49718"/>
		<stop  offset="0.863" style="stop-color:#F5A919"/>
		<stop  offset="1" style="stop-color:#F5AF19"/>
	</linearGradient>
	<path class="st8" d="M243.7,246.9c1,0,1.9,0,2.9,0c0.3,1.8,0.6,3.5,0.8,5.3c0.1,1.6-1,2.7-2.3,2.7c-1.2,0-2.3-1.2-2.1-2.8
		C243,250.4,243.4,248.7,243.7,246.9z"/>
	<linearGradient id="SVGID_6_" gradientUnits="userSpaceOnUse" x1="247.928" y1="250.8024" x2="253.0769" y2="250.8024">
		<stop  offset="0" style="stop-color:#F12711"/>
		<stop  offset="0.2153" style="stop-color:#F25113"/>
		<stop  offset="0.455" style="stop-color:#F37A16"/>
		<stop  offset="0.6741" style="stop-color:#F49718"/>
		<stop  offset="0.863" style="stop-color:#F5A919"/>
		<stop  offset="1" style="stop-color:#F5AF19"/>
	</linearGradient>
	<path class="st9" d="M247.9,246.9c2.5-0.4,2.5-0.4,3.6,1.7c0.4,0.7,0.9,1.4,1.2,2.1c0.2,0.6,0.4,1.3,0.4,1.9
		c-0.1,1.3-1.1,2.2-2.3,2.2c-1,0-2-0.9-2.1-2.1C248.4,250.9,248.2,248.9,247.9,246.9z"/>
	<linearGradient id="SVGID_7_" gradientUnits="userSpaceOnUse" x1="231.4126" y1="250.7704" x2="238.3349" y2="250.7704">
		<stop  offset="0" style="stop-color:#F12711"/>
		<stop  offset="0.2153" style="stop-color:#F25113"/>
		<stop  offset="0.455" style="stop-color:#F37A16"/>
		<stop  offset="0.6741" style="stop-color:#F49718"/>
		<stop  offset="0.863" style="stop-color:#F5A919"/>
		<stop  offset="1" style="stop-color:#F5AF19"/>
	</linearGradient>
	<path class="st10" d="M238.3,246.9c-0.5,0.9-1,1.7-1.3,2.5c-0.4,1-0.8,2-1,3.1c-0.2,1.2-0.8,2.2-2,2.2c-0.7,0-1.7-0.5-2.2-1.1
		c-0.6-0.8-0.7-1.9,0.2-2.8c0.7-0.8,1.4-1.6,2.1-2.4C235.6,246.6,235.6,246.6,238.3,246.9z"/>
	<linearGradient id="SVGID_8_" gradientUnits="userSpaceOnUse" x1="252.0034" y1="250.8055" x2="258.9064" y2="250.8055">
		<stop  offset="0" style="stop-color:#F12711"/>
		<stop  offset="0.2153" style="stop-color:#F25113"/>
		<stop  offset="0.455" style="stop-color:#F37A16"/>
		<stop  offset="0.6741" style="stop-color:#F49718"/>
		<stop  offset="0.863" style="stop-color:#F5A919"/>
		<stop  offset="1" style="stop-color:#F5AF19"/>
	</linearGradient>
	<path class="st11" d="M252,246.9c1.6-0.2,2.9-0.3,3.8,1.4c0.6,1.1,1.6,1.9,2.5,2.8c0.8,0.8,0.7,1.9,0.1,2.6
		c-0.5,0.6-1.5,1.1-2.3,1.2c-1,0.1-1.7-0.9-1.7-1.7c0.1-2.2-1.3-3.7-2.1-5.5C252.2,247.4,252.1,247.2,252,246.9z"/>
	<linearGradient id="SVGID_9_" gradientUnits="userSpaceOnUse" x1="249.8288" y1="261.6506" x2="254.2475" y2="261.6506">
		<stop  offset="0" style="stop-color:#F12711"/>
		<stop  offset="0.2153" style="stop-color:#F25113"/>
		<stop  offset="0.455" style="stop-color:#F37A16"/>
		<stop  offset="0.6741" style="stop-color:#F49718"/>
		<stop  offset="0.863" style="stop-color:#F5A919"/>
		<stop  offset="1" style="stop-color:#F5AF19"/>
	</linearGradient>
	<path class="st12" d="M251.9,259.4c1.3,0,2.4,0.9,2.4,2c0,1.4-1,2.4-2.3,2.4c-1.4,0-2.1-0.7-2.1-2.2
		C249.8,260.2,250.5,259.5,251.9,259.4z"/>
	<linearGradient id="SVGID_10_" gradientUnits="userSpaceOnUse" x1="238.5201" y1="262.7621" x2="243.1147" y2="262.7621">
		<stop  offset="0" style="stop-color:#F12711"/>
		<stop  offset="0.2153" style="stop-color:#F25113"/>
		<stop  offset="0.455" style="stop-color:#F37A16"/>
		<stop  offset="0.6741" style="stop-color:#F49718"/>
		<stop  offset="0.863" style="stop-color:#F5A919"/>
		<stop  offset="1" style="stop-color:#F5AF19"/>
	</linearGradient>
	<path class="st13" d="M240.5,265.1c-0.8,0-1.3,0-2,0c0-1.5,0-3,0-4.6c1.4,0,2.8,0,4.6,0c-0.4,0.5-0.6,1-0.9,1.1c-0.5,0.2-1,0-1.7,0
		C240.5,262.8,240.5,263.9,240.5,265.1z"/>
	<linearGradient id="SVGID_11_" gradientUnits="userSpaceOnUse" x1="241.7715" y1="263.9478" x2="246.0896" y2="263.9478">
		<stop  offset="0" style="stop-color:#F12711"/>
		<stop  offset="0.2153" style="stop-color:#F25113"/>
		<stop  offset="0.455" style="stop-color:#F37A16"/>
		<stop  offset="0.6741" style="stop-color:#F49718"/>
		<stop  offset="0.863" style="stop-color:#F5A919"/>
		<stop  offset="1" style="stop-color:#F5AF19"/>
	</linearGradient>
	<path class="st14" d="M241.8,265.1c0-0.8,0-1.5,0-2.2c1.4,0,2.8,0,4.3,0c0,0.7,0,1.4,0,2.2C244.6,265.1,243.3,265.1,241.8,265.1z"
		/>
	<path class="st6" d="M207.7,280.8c0-1.1,0-2,0-3.1c1.6,0,3.1,0,4.8,0c0,1,0,2,0,3.1C211,280.8,209.4,280.8,207.7,280.8z"/>
	<path class="st6" d="M212.5,281.8c-1.6,0-3.2,0-4.7,0c0-0.1,0-0.2,0-0.2c1.6,0,3.2,0,4.7,0C212.5,281.6,212.5,281.7,212.5,281.8z"
		/>
	<path class="st6" d="M203.8,256.3c0,1,0,1.8,0,2.8c-1.5,0-2.9,0-4.5,0c0-0.9,0-1.8,0-2.8C200.8,256.3,202.3,256.3,203.8,256.3z"/>
	<path class="st6" d="M203.8,260.1c-1.5,0-2.9,0-4.4,0c0-0.1,0-0.2,0-0.3c1.5,0,2.9,0,4.4,0C203.8,260,203.8,260,203.8,260.1z"/>
	<path class="st6" d="M250.3,302.1c-1.4,0-2.8,0-4.2,0c0-0.9,0-1.8,0-2.8c1.3,0,2.7,0,4.2,0C250.3,300.2,250.3,301.1,250.3,302.1z"
		/>
	<path class="st6" d="M267.5,291.9c0-0.9,0-1.7,0-2.6c1.4,0,2.7,0,4.2,0c0,0.8,0,1.7,0,2.6C270.3,291.9,269,291.9,267.5,291.9z"/>
	<path class="st6" d="M267.6,292.5c1.4,0,2.7,0,4.1,0c-1.3,0.6-2.7,0.4-4.1,0.4C267.6,292.8,267.6,292.7,267.6,292.5z"/>
	<path class="st6" d="M274.3,236.3c1.4,0,2.8,0,4.2,0c0,0.9,0,1.7,0,2.6c-1.4,0-2.7,0-4.2,0C274.3,238.1,274.3,237.3,274.3,236.3z"
		/>
	<path class="st6" d="M278.4,239.9c-1.4,0-2.7,0-4.1,0c0-0.1,0-0.2,0-0.2c1.4,0,2.7,0,4.1,0C278.4,239.7,278.4,239.8,278.4,239.9z"
		/>
	<path class="st6" d="M229.1,220.5c0-0.9,0-1.7,0-2.5c1.4,0,2.7,0,4.2,0c0,0.8,0,1.6,0,2.5C231.9,220.5,230.6,220.5,229.1,220.5z"/>
	<path class="st6" d="M229.2,221c1.3,0,2.7,0,4,0c0,0.1,0,0.2,0,0.3c-1.3,0-2.7,0-4,0C229.1,221.2,229.2,221.1,229.2,221z"/>
</g>
</svg>
