<svg id="Calque_1" data-name="Calque 1" xmlns="http://www.w3.org/2000/svg" xmlns:xlink="http://www.w3.org/1999/xlink" viewBox="0 0 512 512"><defs><style>.cls-1{fill:#0f3443;}.cls-2{fill:url(#Dégradé_sans_nom_33);}.cls-3{fill:url(#Dégradé_sans_nom_33-2);}.cls-4{fill:url(#Dégradé_sans_nom_35);}.cls-5{fill:url(#Dégradé_sans_nom_35-2);}.cls-6{fill:url(#Dégradé_sans_nom_35-3);}.cls-7{fill:url(#Dégradé_sans_nom_30);}.cls-8{fill:url(#Dégradé_sans_nom_30-2);}.cls-9{fill:url(#Dégradé_sans_nom_30-3);}.cls-10{fill:#fff;}.cls-11{fill:url(#Dégradé_sans_nom_30-4);}.cls-12{fill:url(#Dégradé_sans_nom_30-5);}</style><linearGradient id="Dégradé_sans_nom_33" x1="239.4" y1="94.58" x2="268.29" y2="94.58" gradientUnits="userSpaceOnUse"><stop offset="0" stop-color="#5808fb"/><stop offset="0.42" stop-color="#7517f3"/><stop offset="1" stop-color="#9929ea"/></linearGradient><linearGradient id="Dégradé_sans_nom_33-2" x1="239.22" y1="94.55" x2="268.66" y2="94.55" xlink:href="#Dégradé_sans_nom_33"/><linearGradient id="Dégradé_sans_nom_35" x1="237.08" y1="164.83" x2="170.61" y2="150.85" gradientUnits="userSpaceOnUse"><stop offset="0" stop-color="#9929ea"/><stop offset="0.22" stop-color="#9125ec"/><stop offset="0.56" stop-color="#7d1bf1"/><stop offset="0.97" stop-color="#5b0afa"/><stop offset="1" stop-color="#5808fb"/></linearGradient><linearGradient id="Dégradé_sans_nom_35-2" x1="233.77" y1="180.56" x2="167.3" y2="166.59" xlink:href="#Dégradé_sans_nom_35"/><linearGradient id="Dégradé_sans_nom_35-3" x1="233.06" y1="183.94" x2="166.59" y2="169.96" xlink:href="#Dégradé_sans_nom_35"/><linearGradient id="Dégradé_sans_nom_30" x1="312.65" y1="436.54" x2="240.9" y2="433.74" gradientUnits="userSpaceOnUse"><stop offset="0" stop-color="#5808fb"/><stop offset="1" stop-color="#9929ea"/></linearGradient><linearGradient id="Dégradé_sans_nom_30-2" x1="311.99" y1="453.53" x2="240.24" y2="450.74" xlink:href="#Dégradé_sans_nom_30"/><linearGradient id="Dégradé_sans_nom_30-3" x1="311.33" y1="470.52" x2="239.58" y2="467.72" xlink:href="#Dégradé_sans_nom_30"/><linearGradient id="Dégradé_sans_nom_30-4" x1="115.9" y1="106.79" x2="156.47" y2="106.79" xlink:href="#Dégradé_sans_nom_30"/><linearGradient id="Dégradé_sans_nom_30-5" x1="352.9" y1="82.05" x2="392.91" y2="82.05" xlink:href="#Dégradé_sans_nom_30"/></defs><title>Plan de travail 1</title><circle class="cls-1" cx="256" cy="256" r="250"/><path class="cls-2" d="M268.1,148.13h0a2.36,2.36,0,0,1-2.54,2.36c-7.52-.62-13.61-3.1-18.33-7.45a23.63,23.63,0,0,1-7.83-18,36.85,36.85,0,0,1,1.93-11.37q1.95-6.15,10.81-27.76c4.47-10.94,6.71-18.77,6.71-23.36q0-14.82-17.46-19.07a2.46,2.46,0,0,1-1.86-2.36h0a2.46,2.46,0,0,1,2.67-2.43c8.26.69,14.53,3.3,18.88,7.83,4.79,5,7.21,10.5,7.21,16.46q0,9.6-12.92,40c-4.66,10.81-7,18.64-7,23.48,0,6,1.86,10.69,5.65,13.92a24.54,24.54,0,0,0,12.12,5.52A2.23,2.23,0,0,1,268.1,148.13Z"/><path class="cls-3" d="M265.74,150.74h-.18c-7.52-.62-13.73-3.11-18.45-7.52a23.72,23.72,0,0,1-7.89-18.2,37.66,37.66,0,0,1,2-11.43c1.31-4,4.91-13.42,10.81-27.83,4.48-10.87,6.71-18.7,6.71-23.29,0-9.7-5.78-16-17.27-18.83a2.66,2.66,0,0,1-2-2.61,2.68,2.68,0,0,1,2.92-2.67c8.27.69,14.66,3.29,19,7.89,4.85,5,7.27,10.62,7.27,16.65,0,6.4-4.35,19.88-13,40.13-4.6,10.75-7,18.58-7,23.42,0,6,1.86,10.56,5.53,13.73a24.81,24.81,0,0,0,12.05,5.47,2.53,2.53,0,0,1,2.11,2.54,2.76,2.76,0,0,1-.8,1.93A3.4,3.4,0,0,1,265.74,150.74ZM242.07,38.86a2,2,0,0,0-1.49.62,2.28,2.28,0,0,0-.68,1.62,2.18,2.18,0,0,0,1.68,2.11c11.68,2.86,17.58,9.32,17.58,19.32,0,4.66-2.3,12.55-6.77,23.48-5.84,14.41-9.51,23.73-10.81,27.77a36.78,36.78,0,0,0-1.93,11.3,23.36,23.36,0,0,0,7.77,17.83c4.65,4.29,10.74,6.77,18.2,7.4a2.15,2.15,0,0,0,1.61-.56,2.23,2.23,0,0,0,.69-1.56,2,2,0,0,0-1.74-2.05,24.62,24.62,0,0,1-12.24-5.59c-3.79-3.23-5.72-8-5.72-14.1,0-4.84,2.36-12.8,7-23.54C263.75,82.72,268.1,69.3,268.1,63c0-5.9-2.42-11.37-7.14-16.34-4.29-4.47-10.62-7.08-18.7-7.76Z"/><circle class="cls-4" cx="197.84" cy="156.58" r="5.34"/><circle class="cls-5" cx="186.47" cy="170.62" r="8.7"/><circle class="cls-6" cx="207.84" cy="178.63" r="4.66"/><path class="cls-7" d="M298.91,439.6H216a5.22,5.22,0,1,1,0-10.43h83a5.22,5.22,0,1,1-.07,10.43Z"/><path class="cls-8" d="M291.21,456.63H223.62a5.22,5.22,0,0,1,0-10.44h67.59a5.22,5.22,0,1,1,0,10.44Z"/><path class="cls-9" d="M280.77,473.65h-46a5.22,5.22,0,1,1,0-10.44h46a5.22,5.22,0,1,1,0,10.44Z"/><path class="cls-10" d="M375.63,274.3c5.41-1.55,8.27-12,10-16.59a103.68,103.68,0,0,0,5.52-21.24c.13-.75.19-1.49.32-2.24,5.21-41.62-11.81-87.16-41.56-116l-.13-.13a124,124,0,0,0-24.94-17.64h61.59a6,6,0,0,0,5.91-7.27,6.23,6.23,0,0,0-6.16-4.78H294.07a6.06,6.06,0,0,0-5.9,7.27,1.82,1.82,0,0,0,.07.25,6,6,0,0,0,.49,1.74,5.56,5.56,0,0,0,.56.93,6.29,6.29,0,0,0,3,2.3h.06l2.36.8,1.74.56a120.85,120.85,0,0,1,46.28,29.2,125.07,125.07,0,0,1,22.06,30.07c.06.18.18.31.24.49,11.74,22.43,16.47,48,12.55,73A124.79,124.79,0,0,1,368.43,266a6,6,0,0,0,5.46,8.45C374.45,274.49,375,274.36,375.63,274.3Z"/><path class="cls-10" d="M322.4,338c-.07-.93-.13-1.86-.63-5.65,0-.12-.06-.31-.06-.43a71.36,71.36,0,0,0-33.11-46.47,70.09,70.09,0,0,0-25-8.82,71.25,71.25,0,0,0-17.46-.5c-10.56,1-19.69,5-28.51,8.95-9.38,4.16-18.26,8.07-28.27,8.07a55.36,55.36,0,0,1-46.34-24.54c-7.45-11.24-11.74-25.53-12.61-42.42a125.51,125.51,0,0,1,86.66-126A6,6,0,0,0,221,92.72a5.94,5.94,0,0,0-5.84-4.31c-.23,0-.45,0-.68,0H122.37a6.07,6.07,0,0,0-5.91,7.27,6.2,6.2,0,0,0,6.15,4.78h62.68A135,135,0,0,0,131.87,157a141.19,141.19,0,0,0-14.47,73.74c1.36,18.2,6.21,33.48,14.41,45.47a69.57,69.57,0,0,0,43.3,28.7c17.83,3.67,31.74-2,45.22-7.45,8.2-3.29,15.9-6.46,24.6-7.7a54.53,54.53,0,0,1,20.07.93c15.28,3.54,28.94,13.23,36.59,26,11.36,19,10.12,44.72-3,62.55-.06.06-.06.13-.12.19-13.23,17.77-37.46,26.4-59,21.06-12.73-3.17-24.6-11.56-32.61-22.92a6.1,6.1,0,0,0-5.84-2.49c-.31.06-.56.06-.87.12l-.62.07a6.23,6.23,0,0,0-4.72,3.48,6.1,6.1,0,0,0,.43,5.83,67.7,67.7,0,0,0,16.71,17.65,70.73,70.73,0,0,0,41.38,13,67.73,67.73,0,0,0,56.09-28.88c10-14,14.73-31.5,13-47.84A2,2,0,0,1,322.4,338Z"/><path class="cls-11" d="M154.36,90.05A6.23,6.23,0,0,0,150,88.18l-27.52-.06a6.3,6.3,0,0,0-6.28,6.28,6.13,6.13,0,0,0,.56,2.6,8.67,8.67,0,0,0,.62,1.5l13.79,23.85a6.24,6.24,0,0,0,5.41,3.11,6.12,6.12,0,0,0,3-.81,6.22,6.22,0,0,0,2.3-8.51L133,100.73h16.9a6.3,6.3,0,0,0,6.27-6.27A6.14,6.14,0,0,0,154.36,90.05Z"/><path class="cls-12" d="M392.35,91.91a8.24,8.24,0,0,0-.63-1.49L377.93,66.57a6.15,6.15,0,0,0-3.79-2.92,6.25,6.25,0,0,0-7.64,4.41,6.31,6.31,0,0,0,.62,4.72l8.95,15.28h-16.9a6.34,6.34,0,0,0-1.16.11,6.27,6.27,0,0,0-1.41.45h-.05l-.07.06a6.27,6.27,0,0,0,2.69,11.93l27.52.06a6.17,6.17,0,0,0,6.21-6.15A6.62,6.62,0,0,0,392.35,91.91Z"/></svg>